<svg width="131" height="133" viewBox="0 0 131 133" fill="none" xmlns="http://www.w3.org/2000/svg">
<g clip-path="url(#clip0_760_13637)">
<path d="M68.3549 63.0351C68.1823 63.071 68.0135 63.1234 67.8509 63.1915C66.2087 64.1807 64.3975 64.3431 62.5682 64.1176C61.4693 64.0196 60.4106 63.6573 59.4832 63.0621C58.9086 62.688 58.4193 62.1979 58.047 61.6235C57.6747 61.049 57.4276 60.4032 57.3218 59.7276C57.1765 58.8518 57.0988 57.9662 57.0894 57.0786C57.0652 52.9442 57.1165 48.8099 57.0652 44.6755C57.023 41.341 58.7285 39.2061 61.5932 37.811C63.0917 37.0849 64.7685 36.8041 66.423 37.0022C69.0341 37.2848 71.2317 38.3673 72.7924 40.5472C73.5227 41.5624 73.9087 42.7832 73.8941 44.032C73.8941 55.2835 73.8941 66.534 73.8941 77.7834C73.8941 78.2886 73.876 78.7937 73.8941 79.2868C73.9847 81.3705 73.1274 83.0244 71.6211 84.4135C70.2291 85.6807 68.4559 86.4544 66.577 86.6144C64.0383 86.885 61.7079 86.3138 59.7065 84.6781C58.0644 83.34 57.0864 81.6382 57.0803 79.4733C57.0803 77.1199 57.0803 74.7646 57.0803 72.4073C57.0803 71.7789 57.1437 71.7218 57.7988 71.7158C59.1511 71.7158 60.5155 71.7158 61.8558 71.7158C62.5742 71.7158 62.6709 71.815 62.6769 72.5697C62.6769 74.0129 62.6769 75.4532 62.6769 76.8965C62.6769 78.6525 62.7131 80.4054 62.6769 82.1613C62.6937 82.8641 62.9742 83.5351 63.4631 84.0421C63.9521 84.549 64.6139 84.8551 65.3182 84.9001C66.0225 84.945 66.7181 84.7253 67.268 84.2846C67.8178 83.8439 68.1819 83.214 68.2885 82.5191C68.3558 81.898 68.3901 81.2738 68.3912 80.649C68.3912 75.0704 68.3912 69.4926 68.3912 63.916C68.4002 63.6694 68.3731 63.4079 68.3549 63.0351ZM68.3972 51.1492C68.3972 48.3138 68.3972 45.4783 68.3972 42.6429C68.3923 42.1401 68.357 41.6381 68.2916 41.1395C68.1255 39.7955 67.2562 39.0347 66.0215 38.7731C64.9409 38.5386 64.0081 38.9625 63.2685 39.8105C62.6648 40.493 62.6799 41.2929 62.6799 42.1137C62.6799 47.4959 62.6799 52.8791 62.6799 58.2633C62.6799 58.8406 62.6799 59.4149 62.6799 59.9922C62.657 60.4045 62.7643 60.8136 62.9868 61.162C63.2093 61.5104 63.5359 61.7806 63.9206 61.9346C64.4835 62.184 65.0989 62.2933 65.7137 62.253C66.3285 62.2127 66.9241 62.0239 67.4494 61.703C67.7619 61.5525 68.0204 61.31 68.1899 61.0083C68.3595 60.7066 68.4318 60.3603 68.3972 60.0163C68.3791 57.0606 68.3972 54.1049 68.3972 51.1492Z" fill="white"/>
<path d="M26.166 19.851V17.4456C26.166 16.6277 26.166 15.8099 26.166 14.9951C26.166 14.1802 26.2264 14.066 26.9992 13.7924L35.7985 10.6863C37.4407 10.103 39.0828 9.52565 40.7159 8.92429C42.5271 8.26279 44.299 7.56522 46.0981 6.90673C47.3267 6.45571 48.5795 6.0588 49.8111 5.6168C51.5438 4.99439 53.2644 4.34197 54.994 3.71655C56.3223 3.23546 57.6625 2.78739 58.9937 2.30631C60.7234 1.68089 62.4501 1.03447 64.1768 0.400038C64.5085 0.257368 64.8506 0.139721 65.2001 0.0481918C65.4779 -0.0173095 65.7681 -0.010038 66.0423 0.06926C67.5063 0.58643 68.9553 1.15475 70.4193 1.68094C72.7799 2.53187 75.1525 3.35269 77.5131 4.20663C79.5326 4.93728 81.54 5.71001 83.5504 6.44668C85.6453 7.2074 87.7554 7.93504 89.8533 8.69577C91.6253 9.33622 93.3821 10.0097 95.1511 10.6532C96.6845 11.2095 98.2301 11.7387 99.7666 12.295C101.303 12.8512 102.846 13.4405 104.385 14.0028C104.56 14.0471 104.711 14.1543 104.81 14.3039C104.91 14.4534 104.95 14.6344 104.922 14.8116C104.889 16.2549 104.922 17.6951 104.922 19.1384C104.901 19.408 104.864 19.6761 104.811 19.9413C104.162 19.7368 103.603 19.5864 103.042 19.382C101.261 18.7235 99.4979 18.0259 97.7139 17.3764C95.4469 16.5496 93.1618 15.7678 90.8918 14.9499C89.8775 14.5831 88.8874 14.1592 87.8731 13.7954C86.3487 13.2511 84.8092 12.752 83.2848 12.2108C82.0773 11.7838 80.897 11.3087 79.6986 10.8817C78.4006 10.4127 77.0875 9.97972 75.7925 9.49863C74.0175 8.84616 72.2547 8.16358 70.4797 7.5111C69.2451 7.05708 67.9983 6.63616 66.7577 6.19717C66.5458 6.08851 66.3233 6.00183 66.0936 5.93855C65.5726 5.85365 65.0382 5.91619 64.5511 6.11899C63.404 6.60008 62.2147 6.96991 61.0464 7.39688C59.7424 7.87496 58.4504 8.38005 57.1433 8.84912C55.9117 9.29112 54.665 9.69102 53.4304 10.13C52.1958 10.569 50.9129 11.0682 49.648 11.5192C48.0723 12.0845 46.4875 12.6167 44.9178 13.188C42.9134 13.9156 40.9242 14.6763 38.9198 15.407C37.3773 15.9692 35.8196 16.5015 34.2741 17.0637C32.7285 17.626 31.2736 18.1823 29.7673 18.7355C28.8456 19.0783 27.9198 19.4101 26.9901 19.7308C26.7191 19.7931 26.4435 19.8333 26.166 19.851Z" fill="white"/>
<path d="M37.3885 71.7751H42.7737C42.8259 72.0209 42.8601 72.2701 42.8763 72.5208C42.8763 76.8486 42.8763 81.1754 42.8763 85.5012C42.8763 86.304 42.8069 86.3733 42.01 86.3733C36.989 86.3733 31.968 86.3733 26.947 86.3733C26.2316 86.3733 26.1621 86.31 26.1621 85.5884C26.1621 81.2375 26.1621 76.8868 26.1621 72.5359C26.1621 70.0734 27.0074 67.9234 28.4171 65.942C30.0532 63.6478 31.644 61.3235 33.265 59.0263C34.0196 57.9529 34.8135 56.9065 35.5652 55.827C36.4068 54.6871 36.9495 53.356 37.1439 51.9543C37.2315 51.1695 37.3643 50.3847 37.3733 49.5999C37.4035 47.0742 37.3734 44.5515 37.3885 42.0258C37.4082 41.4281 37.3055 40.8327 37.0866 40.2758C36.8616 39.7661 36.4686 39.3482 35.9727 39.0912C34.0257 38.0207 31.653 39.3227 31.644 41.4966C31.644 44.5716 31.644 47.6485 31.644 50.7275C31.644 52.1617 31.6017 51.9513 30.4365 51.9603C29.2713 51.9693 28.0699 51.9603 26.8896 51.9603C26.2255 51.9603 26.1712 51.9212 26.1682 51.2808C26.1682 48.8312 26.1682 46.3797 26.1682 43.9261C26.1682 40.9704 27.8224 39.0972 30.3278 37.8734C31.7864 37.1735 33.4046 36.8696 35.0188 36.9924C36.8813 37.1127 38.6623 37.5637 40.1505 38.7364C41.6387 39.909 42.668 41.3583 42.8069 43.3097C42.8522 43.9562 42.8643 44.6056 42.8613 45.2551C42.8613 47.6335 42.8613 50.0149 42.7918 52.3903C42.7254 54.5431 41.8077 56.4164 40.5882 58.1423C38.1461 61.5941 35.6678 65.0218 33.2469 68.4886C32.5434 69.5214 32.0699 70.6924 31.8583 71.9225C31.6664 73.0607 31.5856 74.2146 31.6168 75.3683C31.6168 78.1546 31.6168 80.9429 31.6168 83.7332C31.6168 84.551 31.7104 84.6562 32.5224 84.6623C33.8506 84.6623 35.1788 84.6623 36.507 84.6623C37.2918 84.6623 37.3673 84.5751 37.3673 83.7783C37.3673 80.0999 37.3673 76.4226 37.3673 72.7463L37.3885 71.7751Z" fill="white"/>
<path d="M88.1325 61.5159V37.3563C88.3241 37.3218 88.5177 37.2987 88.7121 37.2871C93.8558 37.2871 98.9986 37.2871 104.14 37.2871C104.771 37.2871 104.898 37.4134 104.916 38.0539C104.934 38.7995 104.916 39.5572 104.916 40.2909V50.6043C104.916 50.7486 104.916 50.8899 104.916 51.0342C104.898 51.8731 104.847 51.9363 104.011 51.9363C102.682 51.9363 101.354 51.9363 100.026 51.9363C99.3407 51.9363 99.2954 51.8912 99.2954 51.1876C99.2954 47.4611 99.2954 43.7357 99.2954 40.0113C99.2954 39.7106 99.2501 39.4099 99.226 39.0701C98.9483 39.0521 98.734 39.0281 98.5227 39.0281C97.1462 39.0281 95.7696 39.013 94.3931 39.0281C93.8105 39.0281 93.6143 39.2325 93.5871 39.8008C93.5871 39.9211 93.5871 40.0414 93.5871 40.1616V59.6819C93.8114 59.729 94.0382 59.763 94.2663 59.784C94.7976 59.784 95.3319 59.76 95.8602 59.784C96.8624 59.8592 97.8918 59.8592 98.8607 60.0847C100.242 60.4204 101.516 61.0954 102.568 62.0481C103.485 62.8266 104.181 63.8312 104.587 64.9617C104.782 65.5539 104.884 66.1726 104.889 66.7959C104.917 71.0054 104.917 75.2149 104.889 79.4244C104.889 82.0163 103.597 83.8986 101.457 85.2788C99.8289 86.3272 97.9022 86.818 95.9689 86.6769C93.3457 86.5266 91.0908 85.5223 89.4245 83.4325C88.5544 82.3938 88.0779 81.0839 88.0781 79.7311C88.0781 77.2806 88.0781 74.8271 88.0781 72.3765C88.0781 72.2111 88.0993 72.0427 88.1114 71.8894C88.6004 71.6939 92.099 71.6249 93.4664 71.7903C93.5138 72.0749 93.545 72.362 93.56 72.6502C93.56 75.6329 93.56 78.6147 93.56 81.5954C93.5198 82.3405 93.722 83.0787 94.1366 83.7002C94.413 84.1263 94.8041 84.4663 95.2652 84.6817C95.7264 84.897 96.2391 84.9788 96.7447 84.9179C97.2986 84.8624 97.8246 84.6488 98.2594 84.3026C98.6943 83.9564 99.0194 83.4925 99.1958 82.9665C99.2724 82.6887 99.299 82.3995 99.2743 82.1125C99.2743 80.7655 99.2743 79.4064 99.2743 78.0714C99.2743 73.5762 99.2743 69.081 99.2743 64.5858C99.3017 64.1801 99.24 63.7733 99.0935 63.3937C98.947 63.0141 98.7192 62.671 98.426 62.388C97.8164 61.8301 97.0105 61.534 96.1832 61.564C93.7924 61.564 91.4017 61.564 89.0139 61.564C88.7694 61.564 88.4857 61.5339 88.1325 61.5159Z" fill="white"/>
<path d="M26.1992 31.2075V25.8343C26.4709 25.8132 26.7064 25.7832 26.9388 25.7832H103.932C104.029 25.7832 104.125 25.7832 104.234 25.7832C104.814 25.8073 104.91 25.8854 104.931 26.4567C104.953 27.0821 104.931 27.7076 104.931 28.333C104.931 29.0065 104.938 29.679 104.953 30.3505C104.953 31.1503 104.922 31.1925 104.092 31.2045H26.2113L26.1992 31.2075Z" fill="white"/>
<path d="M62.1171 121.845C61.9253 121.95 61.723 122.034 61.5134 122.097C60.8795 122.205 60.7044 122.66 60.6893 123.195C60.6591 124.058 60.6561 124.924 60.6893 125.79C60.6893 126.208 60.8433 126.367 61.2629 126.373C62.6152 126.391 63.9646 126.373 65.3169 126.373C65.6852 126.373 65.8331 126.186 65.8301 125.835C65.8301 124.872 65.8301 123.91 65.8301 122.948C65.8445 122.766 65.7908 122.585 65.6794 122.439C65.568 122.294 65.4067 122.195 65.2263 122.16C64.9661 122.068 64.712 121.96 64.4656 121.836C64.3932 121.502 64.5381 121.391 64.8037 121.391H69.223C69.4736 121.391 69.6305 121.502 69.6637 121.809C69.3915 121.94 69.1113 122.055 68.8246 122.151C68.6357 122.2 68.4692 122.311 68.3528 122.467C68.2364 122.623 68.1771 122.814 68.1846 123.008C68.1635 123.246 68.1846 123.489 68.1846 123.73C68.1846 125.963 68.1846 128.198 68.1846 130.435C68.1846 130.676 68.1846 130.916 68.2088 131.157C68.2096 131.423 68.316 131.678 68.5048 131.867C68.6936 132.056 68.9496 132.162 69.217 132.164L69.6637 132.221V132.684H64.4717C64.3781 132.429 64.36 132.245 64.6347 132.191C64.7766 132.164 64.9366 132.173 65.0664 132.146C65.285 132.118 65.4856 132.011 65.629 131.844C65.7724 131.677 65.8484 131.463 65.8422 131.244C65.8422 130.041 65.8422 128.839 65.8422 127.636C65.8524 127.564 65.8456 127.49 65.8223 127.421C65.799 127.353 65.7598 127.29 65.7079 127.239C65.656 127.188 65.5927 127.149 65.5233 127.127C65.4538 127.104 65.38 127.099 65.3079 127.11C63.9797 127.11 62.6514 127.11 61.3232 127.11C60.8493 127.11 60.7195 127.26 60.7195 127.711C60.7195 128.79 60.6954 129.873 60.7376 130.952C60.7678 131.74 61.0395 131.99 61.8153 132.125C62.1352 132.182 62.2349 132.308 62.0809 132.651H57.1243C57.0217 132.35 57.0639 132.194 57.402 132.128C58.202 131.969 58.3076 131.869 58.3469 131.039C58.4102 129.647 58.4374 128.255 58.4374 126.86C58.4374 125.588 58.374 124.316 58.3589 123.044C58.3589 122.482 58.1325 122.142 57.5529 122.037C57.3443 121.977 57.1421 121.896 56.9492 121.796C57.0036 121.445 57.2089 121.348 57.5107 121.351H61.5678C61.6382 121.338 61.7109 121.34 61.7801 121.359C61.8493 121.378 61.9131 121.413 61.9664 121.461C62.0197 121.509 62.0611 121.569 62.0872 121.635C62.1134 121.702 62.1237 121.773 62.1171 121.845Z" fill="white"/>
<path d="M0.0533834 132.23C0.177148 132.206 0.270726 132.185 0.355248 132.17C1.05557 132.065 1.44195 131.683 1.44497 130.995C1.44497 128.4 1.44497 125.802 1.44497 123.207C1.47161 122.966 1.40911 122.723 1.26909 122.524C1.12908 122.326 0.921184 122.184 0.684306 122.127C0.453744 122.042 0.228873 121.941 0.011118 121.827C0.0414074 121.694 0.119634 121.577 0.23092 121.497C0.342206 121.418 0.478809 121.382 0.614846 121.397C2.42603 121.397 4.23722 121.34 6.0484 121.424C7.02947 121.47 7.99905 121.654 8.9282 121.971C10.4737 122.509 11.6057 123.547 12.0163 125.206C12.1595 125.661 12.2446 126.132 12.2698 126.608C12.2457 128.956 11.2284 130.748 9.09726 131.815C8.46911 132.096 7.8136 132.312 7.14115 132.459C5.24544 132.955 3.30447 132.648 1.38461 132.73C1.0254 132.73 0.660151 132.73 0.300933 132.73C-0.0130061 132.718 -0.0583064 132.543 0.0533834 132.23ZM3.74216 126.993H3.76935C3.76935 128.099 3.76935 129.206 3.76935 130.3C3.77794 130.613 3.80919 130.924 3.86291 131.232C3.88874 131.385 3.9566 131.528 4.05891 131.644C4.16121 131.761 4.29398 131.847 4.4425 131.894C5.04623 132.149 5.62883 132.059 6.25369 131.939C6.83401 131.844 7.38322 131.612 7.85572 131.263C8.32821 130.915 8.71036 130.459 8.97046 129.933C9.64664 128.616 9.83682 127.103 9.50779 125.66C9.26328 124.443 8.70785 123.375 7.5487 122.696C6.59782 122.14 5.58656 122.112 4.54815 122.191C3.98668 122.23 3.88406 122.329 3.80557 122.879C3.7523 123.26 3.72607 123.644 3.72708 124.028C3.73614 125.023 3.74216 126.009 3.74216 126.993Z" fill="white"/>
<path d="M89.8408 126.634C90.3811 126.824 90.7796 126.974 91.1841 127.104C91.7185 127.256 92.2009 127.551 92.5787 127.957C93.6081 129.076 93.113 130.733 92.1471 131.533C91.5103 132.03 90.761 132.364 89.9645 132.507C87.7851 132.988 85.5996 132.576 83.4262 132.762C83.2511 132.386 83.2964 132.23 83.6767 132.161C84.4374 132.038 84.7634 131.674 84.7665 130.919C84.7815 128.372 84.7665 125.826 84.7665 123.282C84.7938 123.006 84.7186 122.729 84.5551 122.504C84.3916 122.279 84.1511 122.121 83.879 122.061C83.7049 122.001 83.5345 121.931 83.3688 121.851C83.2903 121.487 83.4715 121.394 83.7613 121.391C84.2684 121.391 84.7725 121.391 85.2706 121.391C86.0675 121.391 86.8644 121.433 87.6583 121.391C88.6334 121.327 89.5721 121.559 90.517 121.691C91.0238 121.8 91.4856 122.06 91.8413 122.435C92.197 122.811 92.4299 123.286 92.5093 123.796C92.6149 124.638 91.9719 125.738 91.1358 126.117C90.7705 126.292 90.3721 126.424 89.8408 126.634ZM86.9882 129.112C86.9882 129.494 86.964 129.882 86.9882 130.261C87.0123 130.64 87.112 131.012 87.1693 131.388C87.1873 131.505 87.2354 131.616 87.3089 131.709C87.3824 131.802 87.4789 131.875 87.5889 131.92C88.0779 132.179 88.4945 132.08 89.0258 131.95C90.5562 131.575 90.9366 129.59 90.3177 128.417C89.7593 127.356 88.742 127.094 87.6311 127.094C87.1482 127.094 87.0274 127.203 86.9942 127.672C86.961 128.141 86.9882 128.631 86.9882 129.112ZM86.9882 124.448V125.311C86.9882 126.481 87.118 126.592 88.2832 126.427H88.3556C89.5872 126.165 90.0491 125.405 89.9978 124.494C89.9978 124.373 89.9978 124.253 89.9978 124.133C89.9525 122.843 89.231 122.16 87.9391 122.187C87.2659 122.187 87.0335 122.41 87.0033 123.089C86.9671 123.537 86.9851 123.991 86.9851 124.448H86.9882Z" fill="white"/>
<path d="M109.347 124.422C109.009 124.789 109.067 125.222 109.046 125.607C109.009 126.223 109.046 126.843 109.073 127.462C109.118 128.638 109.166 129.813 109.233 130.989C109.237 131.29 109.354 131.579 109.561 131.798C109.768 132.018 110.051 132.152 110.353 132.174C110.57 132.213 110.914 132.116 110.908 132.474C110.902 132.832 110.561 132.739 110.344 132.742C109.281 132.742 108.231 132.742 107.159 132.742C107.045 132.735 106.931 132.722 106.818 132.703C106.697 132.384 106.779 132.219 107.096 132.171C107.736 132.071 107.983 131.662 108.11 131.049C108.375 129.762 108.345 128.469 108.348 127.173C108.348 126.142 108.372 125.108 108.348 124.076C108.335 123.669 108.232 123.27 108.046 122.907C107.85 122.616 107.59 122.375 107.286 122.2C107.049 122.067 106.798 121.961 106.537 121.884C106.537 121.541 106.652 121.409 106.924 121.409C107.694 121.378 108.466 121.386 109.236 121.433C109.582 121.517 109.892 121.707 110.123 121.977C110.86 122.732 111.554 123.529 112.27 124.305L116.668 129.083C116.74 128.912 116.791 128.733 116.819 128.55C116.819 126.845 116.819 125.138 116.776 123.439C116.761 122.837 116.541 122.323 115.844 122.167C115.57 122.086 115.303 121.986 115.044 121.866C115.01 121.566 115.146 121.412 115.448 121.412C116.535 121.412 117.622 121.412 118.705 121.412C118.763 121.403 118.822 121.407 118.879 121.423C118.935 121.438 118.988 121.466 119.032 121.504C119.077 121.542 119.112 121.59 119.137 121.643C119.161 121.696 119.173 121.754 119.173 121.812C119.122 121.869 119.095 121.926 119.058 121.932C117.902 122.2 117.703 123.093 117.688 124.067C117.658 126.013 117.658 127.958 117.652 129.903C117.652 130.625 117.652 131.347 117.652 132.068C117.659 132.212 117.659 132.355 117.652 132.498C117.591 133.001 117.226 133.175 116.858 132.832C116.393 132.384 115.952 131.911 115.539 131.416C113.603 129.197 111.672 126.977 109.746 124.756C109.623 124.634 109.49 124.522 109.347 124.422Z" fill="white"/>
<path d="M20.8671 125.306C21.2233 125.306 21.3199 125.502 21.3229 125.733C21.3229 126.548 21.3229 127.366 21.3229 128.184C21.3151 128.258 21.2889 128.33 21.2468 128.392C21.2047 128.455 21.1479 128.506 21.0814 128.541C21.005 128.54 20.9302 128.519 20.8642 128.48C20.7982 128.442 20.7431 128.387 20.7041 128.322C20.4022 127.471 19.7502 127.333 18.9714 127.366C18.5186 127.387 18.0658 127.366 17.5496 127.366C17.4981 127.618 17.4617 127.873 17.4409 128.129C17.4409 129.031 17.4409 129.909 17.4409 130.796C17.4409 131.608 17.622 131.699 18.4039 131.942C19.2132 132.178 20.0754 132.163 20.8761 131.9C21.064 131.862 21.2417 131.785 21.3978 131.674C21.5538 131.563 21.6846 131.421 21.7817 131.256C21.983 130.878 22.2003 130.508 22.4338 130.147C22.5485 129.973 22.6813 129.756 22.953 129.879C23.2246 130.003 23.1552 130.213 23.0979 130.436C22.9107 131.172 22.7356 131.912 22.5485 132.688H13.571C13.4684 132.417 13.4684 132.219 13.8216 132.18C13.9151 132.18 14.0148 132.18 14.1234 132.162C14.256 132.156 14.3861 132.124 14.5063 132.068C14.6264 132.012 14.7343 131.932 14.8235 131.835C14.9128 131.737 14.9817 131.622 15.0263 131.498C15.0709 131.373 15.0903 131.241 15.0834 131.109C15.0834 128.418 15.0834 125.724 15.0834 123.033C15.1045 122.829 15.0493 122.624 14.9285 122.457C14.8077 122.291 14.6297 122.175 14.4283 122.131C14.1972 122.052 13.9704 121.961 13.7491 121.857C13.7219 121.539 13.8729 121.409 14.1627 121.406C14.5491 121.406 14.9355 121.406 15.3219 121.406C17.2739 121.406 19.229 121.406 21.1871 121.406C21.9478 121.406 21.9779 121.436 22.0655 122.209C22.1138 122.639 22.1742 123.066 22.2134 123.496C22.2304 123.562 22.2326 123.631 22.2199 123.698C22.2071 123.764 22.1798 123.828 22.1397 123.883C22.0996 123.938 22.0479 123.984 21.9881 124.017C21.9283 124.049 21.862 124.069 21.7938 124.073C21.6599 123.875 21.5409 123.667 21.4376 123.451C21.1086 122.627 20.532 122.176 19.6264 122.206C19.074 122.224 18.5186 122.206 17.9632 122.206C17.61 122.206 17.4258 122.365 17.4289 122.729C17.4289 123.836 17.4289 124.942 17.4289 126.037C17.4194 126.103 17.4254 126.171 17.4466 126.234C17.4678 126.298 17.5035 126.356 17.5509 126.403C17.5983 126.451 17.6561 126.487 17.7197 126.508C17.7834 126.529 17.8513 126.536 17.9179 126.527C18.5458 126.527 19.1736 126.506 19.7985 126.467C19.9686 126.456 20.1317 126.395 20.2675 126.292C20.4032 126.19 20.5058 126.05 20.5622 125.889C20.6528 125.691 20.7735 125.487 20.8671 125.306Z" fill="white"/>
<path d="M71.7081 115.876C70.5791 115.961 69.4562 115.846 68.6895 114.866C68.1487 114.109 67.6605 113.317 67.2285 112.494C66.8119 111.775 66.6519 111.667 65.7795 111.724C65.7614 111.964 65.7282 112.217 65.7252 112.47C65.7252 113.071 65.7252 113.672 65.7252 114.274C65.7433 115.004 65.8369 115.116 66.5493 115.335L66.8873 115.449C66.8873 115.852 66.6157 115.819 66.3893 115.819L63.9321 115.792C63.5698 115.792 63.2076 115.816 62.8484 115.792C62.7186 115.792 62.5978 115.669 62.4258 115.582C62.5586 115.467 62.6039 115.395 62.6643 115.38C63.751 115.098 63.6966 114.779 63.7087 113.94C63.7359 111.922 63.7238 109.902 63.7087 107.881C63.7087 106.892 63.594 106.79 62.6099 106.504C62.5314 106.237 62.6401 106.089 62.9118 106.089C64.4815 106.089 66.0512 106.071 67.6179 106.119C68.1211 106.147 68.6151 106.265 69.0759 106.468C70.4493 107.045 71.1406 109.033 69.749 110.317C69.5465 110.514 69.318 110.683 69.0698 110.819C68.9999 110.842 68.9363 110.881 68.8838 110.932C68.8314 110.983 68.7917 111.046 68.7677 111.116C68.7437 111.185 68.7362 111.259 68.7457 111.331C68.7551 111.404 68.7814 111.474 68.8223 111.535C69.6313 112.879 70.2833 114.34 71.5783 115.332C71.6267 115.355 71.6693 115.389 71.703 115.431C71.7367 115.473 71.7606 115.521 71.773 115.574C71.7854 115.626 71.7861 115.68 71.7748 115.732C71.7636 115.785 71.7408 115.834 71.7081 115.876ZM65.7916 111.032C66.0566 111.111 66.3349 111.136 66.6097 111.104C66.8844 111.072 67.1498 110.985 67.3898 110.848C67.6298 110.711 67.8393 110.527 68.0056 110.307C68.172 110.087 68.2917 109.836 68.3574 109.568C68.5087 108.987 68.4674 108.374 68.2397 107.818C68.1246 107.465 67.8994 107.158 67.597 106.942C67.2945 106.726 66.9306 106.611 66.5583 106.615C65.9546 106.615 65.7373 106.808 65.7282 107.424C65.7282 108.432 65.7282 109.442 65.7282 110.449C65.7386 110.645 65.7607 110.839 65.7946 111.032H65.7916Z" fill="white"/>
<path d="M86.0977 115.507C86.1369 115.468 86.1641 115.408 86.2003 115.405C87.0123 115.314 87.3624 114.836 87.3594 114.048C87.3594 113.715 87.4017 113.378 87.3987 113.044C87.3987 111.463 87.3916 109.88 87.3776 108.296C87.3776 108.035 87.29 107.773 87.287 107.512C87.2977 107.398 87.2853 107.284 87.2505 107.176C87.2157 107.068 87.1592 106.967 87.0845 106.881C87.0097 106.795 86.9182 106.725 86.8155 106.676C86.7129 106.626 86.6011 106.597 86.4871 106.592C86.4207 106.592 86.3633 106.528 86.2214 106.447C86.3301 106.318 86.3995 106.168 86.5233 106.11C86.6635 106.076 86.809 106.069 86.9519 106.089C88.3737 106.089 89.7985 106.035 91.2173 106.089C92.4247 106.15 93.6111 106.327 94.6676 106.928C95.1132 107.17 95.5028 107.503 95.8111 107.904C96.1195 108.306 96.3398 108.767 96.4576 109.259C96.7858 110.477 96.6615 111.772 96.1075 112.906C95.8028 113.474 95.3887 113.976 94.8888 114.384C94.389 114.792 93.8132 115.098 93.1945 115.284C91.6671 115.811 90.0732 115.807 88.4824 115.804C87.8787 115.804 87.2749 115.804 86.6712 115.786C86.4297 115.798 86.1701 115.825 86.0977 115.507ZM89.397 107.031C89.3552 107.186 89.3279 107.345 89.3155 107.506C89.3155 109.665 89.3105 111.822 89.3004 113.979C89.2989 114.003 89.2989 114.027 89.3004 114.051C89.388 114.779 89.7864 115.209 90.526 115.212C91.4726 115.271 92.4047 114.958 93.122 114.34C93.6968 113.762 94.0919 113.031 94.2601 112.235C94.4487 111.58 94.5015 110.894 94.4154 110.218C94.3292 109.542 94.1059 108.89 93.759 108.302C93.3305 107.578 92.641 107.043 91.8307 106.807C91.0204 106.57 90.1502 106.65 89.397 107.031Z" fill="white"/>
<path d="M107.289 115.495C107.357 115.445 107.43 115.403 107.506 115.368C108.463 115.098 108.644 114.878 108.644 113.913C108.644 111.943 108.644 109.973 108.644 108.005C108.644 106.985 108.509 106.823 107.546 106.501C107.443 106.273 107.546 106.137 107.766 106.089C107.885 106.071 108.005 106.065 108.125 106.071C109.598 106.071 111.074 106.011 112.538 106.113C113.622 106.189 114.715 106.33 115.723 106.859C116.621 107.326 117.301 108.123 117.619 109.081C117.867 109.771 117.95 110.509 117.86 111.237C117.769 111.964 117.509 112.661 117.1 113.27C116.471 114.238 115.518 114.952 114.41 115.287C113.189 115.665 111.912 115.838 110.634 115.798C109.792 115.798 108.949 115.798 108.104 115.798C107.817 115.81 107.509 115.861 107.289 115.495ZM110.67 107.021C110.608 107.412 110.566 107.805 110.546 108.2C110.546 109.974 110.546 111.751 110.546 113.528C110.569 113.862 110.612 114.195 110.676 114.523C110.685 114.656 110.739 114.782 110.83 114.88C110.92 114.978 111.042 115.042 111.174 115.062C111.423 115.148 111.681 115.203 111.944 115.227C113.293 115.158 114.377 114.641 115.062 113.402C115.747 112.163 115.762 110.912 115.524 109.628C115.382 109.048 115.127 108.501 114.772 108.02C114.321 107.398 113.652 106.969 112.898 106.817C112.119 106.591 111.413 106.504 110.67 107.021Z" fill="white"/>
<path d="M81.9343 132.739H77.6236C77.3218 132.739 77.0863 132.678 77.2071 132.233C77.3341 132.208 77.4584 132.171 77.5784 132.122C77.9557 131.942 78.1399 131.659 78.0372 131.328C77.844 130.712 77.6267 130.105 77.3942 129.506C77.3358 129.31 77.2061 129.142 77.0304 129.035C76.8547 128.929 76.6455 128.891 76.4434 128.929C75.7692 128.982 75.092 128.982 74.4178 128.929C73.7628 128.884 73.639 129.025 73.3855 129.602C73.207 130.069 73.0667 130.55 72.9659 131.04C72.7878 131.755 72.9659 132.017 73.6964 132.182C73.7545 132.199 73.811 132.22 73.8654 132.245C73.9469 132.483 73.9711 132.714 73.6058 132.72C72.5674 132.737 71.529 132.737 70.4906 132.72C70.1555 132.72 70.2129 132.474 70.2552 132.218C71.1396 132.146 71.6166 131.617 71.9214 130.847C72.4708 129.449 73.0564 128.063 73.636 126.677C74.3182 125.047 75.0246 123.427 75.6978 121.794C75.7352 121.643 75.8281 121.511 75.9584 121.424C76.0886 121.338 76.2466 121.304 76.4011 121.328C76.7754 121.358 76.8358 121.628 76.9415 121.902C77.2916 122.837 77.681 123.76 78.0312 124.695C78.484 125.898 78.9005 127.125 79.3593 128.328C79.7065 129.23 80.108 130.132 80.4581 131.034C80.5565 131.316 80.7276 131.568 80.9543 131.765C81.181 131.961 81.4554 132.095 81.7501 132.152C82.0701 132.249 82.0339 132.441 81.9343 132.739ZM75.4231 128.204C75.6404 128.204 75.8578 128.204 76.0721 128.204C76.6154 128.171 76.7966 127.973 76.6366 127.477C76.3588 126.599 76.0328 125.736 75.7128 124.873C75.6796 124.779 75.5438 124.656 75.4744 124.668C75.412 124.68 75.353 124.705 75.301 124.742C75.249 124.778 75.2052 124.825 75.1725 124.879C74.8374 125.712 74.4994 126.545 74.2096 127.395C74.0043 127.997 74.1552 128.18 74.7892 128.204C74.9914 128.213 75.2087 128.207 75.4231 128.204Z" fill="white"/>
<path d="M100.349 121.408C101.106 123.447 101.858 125.462 102.606 127.47C103.053 128.649 103.536 129.815 104.007 130.988C104.103 131.286 104.276 131.553 104.509 131.761C104.743 131.97 105.028 132.113 105.335 132.176C105.637 132.236 105.637 132.428 105.547 132.699H100.838C100.744 132.458 100.705 132.296 101.04 132.161C101.704 131.89 101.761 131.695 101.514 131.018C101.36 130.591 101.233 130.155 101.085 129.728C100.91 129.232 100.623 128.928 100.026 128.955C99.3312 128.982 98.6309 128.928 97.9306 128.91C97.7352 128.883 97.5364 128.926 97.3702 129.032C97.2041 129.138 97.0815 129.299 97.025 129.488C96.8529 129.984 96.6567 130.477 96.5239 130.991C96.3458 131.683 96.4907 131.893 97.188 132.176C97.2578 132.188 97.3258 132.209 97.3903 132.239C97.4287 132.267 97.4591 132.304 97.4781 132.348C97.4972 132.391 97.5044 132.439 97.4988 132.486C97.4933 132.533 97.4753 132.578 97.4467 132.616C97.418 132.654 97.3798 132.684 97.3359 132.702C97.1716 132.739 97.003 132.753 96.8348 132.744C95.8477 132.744 94.8637 132.744 93.8856 132.744C93.792 132.443 93.792 132.239 94.0818 132.197C94.918 132.071 95.2893 131.451 95.564 130.784C96.6778 128.123 97.7706 125.45 98.8694 122.783C98.978 122.518 99.0746 122.247 99.1924 121.986C99.5033 121.309 99.5063 121.312 100.349 121.408ZM99.1199 124.436C98.9388 124.629 98.7848 124.737 98.7305 124.863C98.483 125.48 98.2626 126.108 98.0392 126.736C97.9182 127.047 97.8174 127.366 97.7374 127.69C97.7142 127.753 97.708 127.822 97.7194 127.888C97.7307 127.955 97.7592 128.018 97.8021 128.07C97.845 128.122 97.9008 128.163 97.964 128.187C98.0273 128.212 98.0958 128.22 98.163 128.21C98.6943 128.21 99.2286 128.225 99.7569 128.21C100.167 128.189 100.309 127.993 100.24 127.608C100.211 127.443 100.169 127.28 100.113 127.121C99.7991 126.252 99.4822 125.404 99.1199 124.436Z" fill="white"/>
<path d="M125.778 121.4C126.08 122.2 126.427 123.018 126.741 123.847C127.39 125.561 128.021 127.284 128.67 129.001C128.932 129.69 129.225 130.369 129.497 131.055C129.595 131.312 129.751 131.544 129.951 131.733C130.152 131.923 130.393 132.065 130.656 132.149C130.958 132.251 130.958 132.257 131 132.684H126.294C126.176 132.384 126.279 132.248 126.532 132.149C127.052 131.948 127.185 131.797 127.058 131.304C126.871 130.615 126.628 129.942 126.33 129.293C126.26 129.203 126.172 129.13 126.071 129.078C125.97 129.026 125.858 128.997 125.745 128.992C124.927 128.941 124.109 128.917 123.29 128.944C123.095 128.93 122.902 128.989 122.748 129.109C122.594 129.229 122.491 129.402 122.457 129.593C122.324 130.077 122.166 130.554 121.983 131.022C121.781 131.623 121.826 131.845 122.554 132.17C122.638 132.206 122.756 132.188 122.829 132.236C122.901 132.285 122.98 132.393 122.967 132.456C122.929 132.559 122.866 132.651 122.783 132.724C122.759 132.754 122.693 132.751 122.644 132.751H119.348C119.224 132.45 119.203 132.233 119.517 132.2C120.377 132.116 120.725 131.47 120.996 130.811C121.63 129.341 122.231 127.855 122.844 126.376C123.456 124.897 124.03 123.414 124.673 121.959C124.96 121.331 124.996 121.259 125.778 121.4ZM124.534 124.407C124.44 124.522 124.356 124.645 124.281 124.774C123.909 125.697 123.529 126.614 123.182 127.543C123.04 127.922 123.182 128.144 123.607 128.18C124.158 128.223 124.711 128.228 125.262 128.195C125.745 128.168 125.865 127.925 125.705 127.459C125.521 126.944 125.352 126.424 125.159 125.913C124.984 125.459 124.782 125.011 124.534 124.413V124.407Z" fill="white"/>
<path d="M44.7158 121.385L45.4825 121.331C45.7844 122.05 46.0622 122.774 46.3429 123.505C46.9466 125.066 47.5503 126.629 48.1329 128.19C48.4348 129.013 48.7729 129.834 49.0838 130.658C49.3645 131.395 49.7147 132.05 50.5931 132.201C50.8467 132.243 50.8557 132.441 50.741 132.694H46.0018C45.875 132.453 45.8901 132.303 46.1587 132.177C46.847 131.849 46.9557 131.593 46.7112 130.884C46.5451 130.406 46.3338 129.946 46.1738 129.467C46.1276 129.292 46.0186 129.14 45.8674 129.039C45.7161 128.938 45.5331 128.896 45.3528 128.92C44.6283 128.935 43.9038 128.944 43.1793 128.965C42.4548 128.986 42.3794 129.068 42.162 129.732C42.0202 130.162 41.8602 130.586 41.7183 131.013C41.4979 131.614 41.6579 131.975 42.2949 132.144C42.5967 132.222 42.811 132.285 42.6843 132.697H39.0227C38.9291 132.396 38.9865 132.225 39.3245 132.177C40.0822 132.062 40.4565 131.536 40.7282 130.887C41.6036 128.782 42.4941 126.707 43.3665 124.612C43.7166 123.779 44.0276 122.928 44.3687 122.089C44.4623 121.848 44.5951 121.623 44.7158 121.385ZM44.3023 124.488L44.091 124.521C43.7166 125.498 43.3363 126.476 42.965 127.456C42.7748 127.958 42.9107 128.175 43.4571 128.196C44.0034 128.217 44.4683 128.196 44.9664 128.196C45.4644 128.196 45.6275 127.97 45.4735 127.513C45.2743 126.912 45.06 126.295 44.8275 125.709C44.6645 125.294 44.4804 124.9 44.3023 124.488Z" fill="white"/>
<path d="M32.0884 106.516C31.9828 106.215 32.1186 106.089 32.3903 106.089C33.2959 106.089 34.2256 106.089 35.1403 106.089C35.3787 106.089 35.5025 106.185 35.4723 106.489L35.1101 106.624C34.8895 106.69 34.696 106.824 34.5579 107.008C34.4199 107.191 34.3447 107.414 34.3434 107.643C34.2981 109.249 34.2287 110.855 34.1894 112.454C34.1653 113.392 34.1894 114.331 34.1713 115.266C34.1738 115.376 34.1544 115.487 34.1139 115.59C34.0735 115.693 34.013 115.787 33.9358 115.867C33.6853 116.026 33.4408 115.822 33.2566 115.611L28.2668 109.898C27.9831 109.574 27.6963 109.249 27.3914 108.942C27.244 108.836 27.0838 108.748 26.9145 108.681C26.8735 108.889 26.8443 109.1 26.8269 109.312C26.8269 110.515 26.7968 111.718 26.8269 112.92C26.8792 113.515 26.9659 114.106 27.0865 114.691C27.1409 115.034 27.4337 115.133 27.6903 115.251C27.8862 115.327 28.0881 115.388 28.294 115.431C28.294 115.747 28.1159 115.786 27.9167 115.792C27.5061 115.792 27.0986 115.792 26.6881 115.807H25.387C25.1576 115.807 25.1576 115.807 24.8859 115.53C24.8859 115.509 24.8859 115.473 24.9161 115.47C25.9666 115.202 26.1568 114.337 26.187 113.477C26.2474 111.651 26.2353 109.823 26.2172 107.998C26.206 107.676 26.0889 107.366 25.8838 107.117C25.6788 106.868 25.3971 106.692 25.0822 106.618C24.9735 106.585 24.8618 106.564 24.7803 106.54C24.6958 106.221 24.8014 106.086 25.0822 106.089C25.7342 106.089 26.3892 106.059 27.0352 106.11C27.2889 106.161 27.5189 106.293 27.6903 106.486C28.3423 107.153 28.9671 107.845 29.598 108.53C30.7089 109.748 31.8137 110.969 32.9185 112.184C33.0746 112.32 33.2411 112.443 33.4166 112.554C33.4671 112.333 33.5024 112.109 33.5223 111.883C33.5223 110.584 33.5223 109.288 33.483 107.992C33.4619 107.09 33.1812 106.79 32.2756 106.594C32.2111 106.573 32.1485 106.547 32.0884 106.516Z" fill="white"/>
<path d="M37.4615 129.786C37.9022 129.743 38.0199 129.966 37.9505 130.267C37.7694 131.075 37.5551 131.878 37.3468 132.693H28.7678C28.6742 132.392 28.6863 132.215 29.0032 132.191C29.1481 132.191 29.3051 132.191 29.4379 132.161C29.6907 132.135 29.9268 132.023 30.1065 131.844C30.2862 131.665 30.3987 131.429 30.425 131.178C30.4401 131.035 30.4462 130.891 30.4431 130.748C30.4431 128.342 30.4431 125.937 30.4431 123.531C30.4431 123.435 30.4431 123.339 30.4431 123.231C30.4702 122.977 30.404 122.723 30.2569 122.514C30.1098 122.306 29.8917 122.157 29.6432 122.097C29.4168 122.031 29.2025 121.929 28.9942 121.851C28.9247 121.448 29.1391 121.378 29.45 121.378C30.3556 121.378 31.2853 121.378 32.2 121.378C32.683 121.378 33.166 121.357 33.6459 121.378C33.8576 121.425 34.061 121.503 34.2496 121.61V121.799C33.9813 121.927 33.7038 122.034 33.4195 122.121C33.252 122.149 33.0998 122.235 32.9895 122.364C32.8791 122.492 32.8177 122.656 32.8158 122.825C32.7826 123.183 32.7313 123.54 32.7313 123.898C32.7313 125.988 32.7313 128.078 32.7313 130.167C32.7237 130.239 32.7237 130.312 32.7313 130.384C32.8188 130.844 32.9154 131.307 33.009 131.767C33.6429 131.992 34.2768 132.215 34.9681 132.047C35.2488 131.977 35.5296 131.917 35.8103 131.845C36.4955 131.674 36.74 131.069 37.066 130.552C37.2111 130.304 37.3431 130.048 37.4615 129.786Z" fill="white"/>
<path d="M61.4717 113.338C61.5117 113.51 61.53 113.687 61.526 113.864C61.4385 114.357 61.3298 114.85 61.197 115.335C61.0914 115.728 60.7593 115.798 60.3971 115.801C59.1896 115.801 57.9821 115.801 56.7747 115.801C55.8691 115.801 54.9424 115.801 54.0277 115.783C53.7953 115.783 53.5387 115.828 53.3516 115.482C53.5417 115.413 53.6987 115.344 53.8647 115.302C54.4684 115.142 54.6043 115.001 54.6647 114.375C54.6712 114.275 54.6712 114.175 54.6647 114.075C54.6647 111.937 54.6647 109.799 54.6647 107.664C54.6647 106.855 54.5439 106.762 53.744 106.567C53.6902 106.545 53.6395 106.517 53.593 106.483C53.5145 106.119 53.7259 106.062 54.0398 106.065C54.9454 106.065 55.8238 106.065 56.7143 106.065C57.7769 106.065 58.8274 106.065 59.899 106.065C60.5782 106.065 60.6174 106.116 60.6959 106.798C60.7291 107.099 60.7593 107.421 60.7955 107.73C60.8188 107.795 60.8271 107.863 60.8198 107.931C60.8125 107.999 60.7899 108.064 60.7535 108.122C60.7172 108.18 60.6681 108.229 60.61 108.265C60.552 108.302 60.4863 108.324 60.4182 108.332C60.1163 107.466 59.6002 106.729 58.5648 106.672C57.9369 106.639 57.2577 106.473 56.6841 107.063C56.6841 108.004 56.6841 108.987 56.6841 109.97C56.6841 110.412 56.8079 110.503 57.2667 110.524C57.6501 110.524 58.0395 110.524 58.4229 110.524C58.6408 110.534 58.8561 110.473 59.0352 110.349C59.2144 110.225 59.3472 110.045 59.413 109.838C59.435 109.719 59.4984 109.611 59.5922 109.533C59.686 109.456 59.8043 109.414 59.9262 109.414C59.997 110.348 60.0121 111.284 59.9714 112.22C59.9131 112.236 59.8521 112.239 59.7922 112.231C59.7322 112.223 59.6747 112.202 59.6232 112.17C59.5716 112.139 59.5272 112.097 59.4926 112.047C59.458 111.998 59.434 111.942 59.422 111.883C59.2319 111.354 58.8002 111.182 58.2961 111.146C57.9583 111.125 57.6196 111.125 57.2818 111.146C56.8079 111.167 56.6781 111.275 56.6781 111.763C56.6781 112.577 56.657 113.395 56.6781 114.21C56.6992 114.844 56.9015 115.079 57.5445 115.151C58.0937 115.196 58.6455 115.202 59.1956 115.169C59.8899 115.142 60.3397 114.739 60.6687 114.162C60.8408 113.861 61.034 113.579 61.2181 113.287L61.4717 113.338Z" fill="white"/>
<path d="M13.2906 106.483C13.2393 106.137 13.4627 106.089 13.7283 106.089H17.1937C17.4775 106.089 17.6737 106.161 17.565 106.543C17.4352 106.57 17.2964 106.594 17.1635 106.633C16.7621 106.744 16.4783 106.961 16.4813 107.424C16.4813 109.228 16.3395 111.047 16.5659 112.836C16.8496 115.028 18.7695 115.59 20.4448 114.715C20.7156 114.559 20.9397 114.334 21.0938 114.063C21.4602 113.498 21.6686 112.846 21.6975 112.175C21.7157 110.948 21.7157 109.724 21.6975 108.497C21.6975 107.162 21.453 106.862 20.2093 106.528C20.1308 106.296 20.2094 106.131 20.4569 106.125C21.447 106.107 22.4341 106.125 23.4242 106.125C23.6808 106.125 23.7472 106.284 23.7049 106.555L23.403 106.663C23.1473 106.736 22.9235 106.893 22.7676 107.107C22.6116 107.322 22.5324 107.583 22.5427 107.848C22.5427 108.615 22.5005 109.384 22.4552 110.151C22.4393 111.157 22.3657 112.161 22.2348 113.158C22.1562 113.682 21.9477 114.178 21.6284 114.602C21.309 115.025 20.8888 115.363 20.4056 115.584C19.7827 115.879 19.1038 116.037 18.4144 116.049C17.725 116.06 17.0412 115.924 16.4089 115.65C15.5304 115.305 15.0414 114.613 14.7154 113.744C14.5149 113.129 14.429 112.483 14.4618 111.838C14.4618 110.635 14.4618 109.432 14.4618 108.23C14.4618 107.027 14.4105 106.898 13.2906 106.483Z" fill="white"/>
<path d="M86.9943 92.5556C87.1935 92.5159 87.3953 92.4899 87.5981 92.4775C88.9021 92.4775 90.2032 92.4776 91.5042 92.5016C91.9245 92.5135 92.3318 92.65 92.6738 92.8938C93.0158 93.1375 93.277 93.4772 93.424 93.8697C93.7018 94.7958 93.4512 95.5204 92.6392 96.1308C91.966 96.6359 91.9479 96.645 92.3977 97.3877C93.0014 98.3799 93.5538 99.4172 94.5107 100.16C94.5772 100.211 94.5983 100.319 94.6707 100.461C94.5351 100.509 94.3943 100.542 94.2511 100.56C93.6853 100.598 93.1207 100.468 92.6298 100.185C92.1388 99.9023 91.7437 99.48 91.4951 98.9723C91.2717 98.5513 91.0514 98.1273 90.825 97.7094C90.7798 97.625 90.7262 97.5454 90.665 97.4718C90.4507 97.2102 90.2333 96.9006 89.8409 97.0118C89.4485 97.1231 89.5692 97.5199 89.5391 97.8086C89.5089 98.0973 89.5391 98.4791 89.5391 98.8159C89.5391 99.7751 89.5964 99.8472 90.4597 100.163C90.5141 100.407 90.3993 100.524 90.1579 100.524C89.2191 100.524 88.2803 100.524 87.3385 100.509C87.2086 100.509 87.0849 100.376 86.9551 100.304C87.0185 100.19 87.0336 100.124 87.0668 100.112C87.8607 99.8112 87.8758 99.8111 87.8818 99.0082C87.8818 97.3996 87.8637 95.791 87.8818 94.1824C87.8879 93.4728 87.8486 92.8413 86.9943 92.5556ZM89.5239 94.7597C89.5239 95.1926 89.5239 95.6257 89.5239 96.0587C89.5138 96.1244 89.5182 96.1914 89.5369 96.2551C89.5556 96.3189 89.5881 96.3779 89.6321 96.4278C89.6762 96.4777 89.7306 96.5173 89.7918 96.5439C89.8529 96.5705 89.9191 96.5835 89.9858 96.5818C90.3215 96.6023 90.6559 96.5237 90.9469 96.3557C91.238 96.1877 91.4728 95.9379 91.6219 95.6376C91.8533 95.0241 91.8533 94.3479 91.6219 93.7344C91.529 93.5117 91.3846 93.3137 91.2005 93.157C91.0164 93.0003 90.7978 92.8891 90.5624 92.8324C89.9345 92.6279 89.536 92.9345 89.5179 93.608C89.5149 93.9899 89.5239 94.3748 89.5239 94.7597Z" fill="white"/>
<path d="M96.0918 115.611C96.2846 115.489 96.4864 115.382 96.6955 115.29C96.9543 115.188 97.1867 115.03 97.3754 114.826C97.5641 114.623 97.7042 114.379 97.7853 114.114C98.3286 112.797 98.8478 111.471 99.3882 110.151C99.847 109.023 100.321 107.899 100.795 106.777C100.862 106.599 100.952 106.43 101.063 106.275C101.114 106.187 101.191 106.117 101.283 106.073C101.374 106.029 101.477 106.014 101.578 106.029C101.679 106.045 101.772 106.091 101.846 106.16C101.921 106.23 101.972 106.32 101.993 106.42L104.764 113.774C105.118 114.715 105.226 114.833 106.482 115.56C106.316 115.668 106.132 115.746 105.939 115.789C104.761 115.789 103.587 115.765 102.41 115.735C102.359 115.735 102.31 115.59 102.244 115.491C102.337 115.419 102.407 115.353 102.482 115.305C102.917 115.04 103.007 114.842 102.905 114.373C102.905 114.324 102.887 114.276 102.872 114.231L102.268 112.677C101.361 112.554 100.442 112.532 99.53 112.614C99.4274 112.627 99.3291 112.663 99.2427 112.72C99.1564 112.777 99.0843 112.852 99.032 112.941C98.8615 113.384 98.7302 113.841 98.6395 114.306C98.4916 114.971 98.561 115.076 99.1799 115.338C99.2656 115.377 99.3475 115.424 99.4244 115.479C99.4425 115.479 99.4455 115.518 99.4757 115.59C99.3972 115.648 99.3097 115.771 99.2191 115.771C98.3135 115.771 97.4079 115.771 96.4812 115.771C96.3756 115.768 96.282 115.696 96.0918 115.611ZM100.596 108.777C100.227 109.793 99.6719 110.671 99.5693 111.706C100.259 111.909 100.993 111.909 101.682 111.706C101.767 110.975 101.178 109.294 100.596 108.777Z" fill="white"/>
<path d="M70.5641 100.433C69.9168 100.613 69.2265 100.556 68.6176 100.273C68.0086 99.9901 67.5213 99.4998 67.2435 98.8904C66.9921 98.4022 66.715 97.9274 66.4134 97.4682C66.2982 97.2872 66.1408 97.1366 65.9546 97.0292C65.9006 96.986 65.8355 96.9587 65.7668 96.9504C65.698 96.9421 65.6283 96.953 65.5655 96.9821C65.5027 97.0112 65.4493 97.0572 65.4114 97.115C65.3734 97.1727 65.3525 97.2398 65.3508 97.3088C65.2865 97.9078 65.2663 98.5108 65.2905 99.1128C65.3206 99.6781 65.5772 100.12 66.2353 100.108C66.2957 100.409 66.1749 100.517 65.9334 100.517C64.9946 100.517 64.0528 100.517 63.114 100.517C62.9842 100.517 62.8544 100.388 62.7246 100.316C62.788 100.201 62.8061 100.129 62.8333 100.123C63.4944 100.033 63.6785 99.606 63.6694 99.0046C63.6513 97.2006 63.6483 95.3965 63.6423 93.5924C63.6626 93.4119 63.6143 93.2304 63.5071 93.0835C63.3998 92.9366 63.2413 92.835 63.0627 92.7986C62.9956 92.7819 62.9334 92.7498 62.881 92.7049C62.8286 92.66 62.7875 92.6036 62.7608 92.54C62.9601 92.501 63.1618 92.4759 63.3646 92.4648C64.6445 92.4648 65.9214 92.4649 67.1983 92.4889C67.6199 92.4806 68.0343 92.5982 68.3882 92.8265C68.7422 93.0547 69.0195 93.3832 69.1845 93.7698C69.3612 94.1652 69.3953 94.6094 69.2809 95.0269C69.1664 95.4445 68.9106 95.8098 68.5566 96.061C67.7476 96.6623 67.7205 96.6413 68.2367 97.4742C68.6381 98.1237 69.0487 98.773 69.5075 99.3834C69.8359 99.7562 70.1889 100.107 70.5641 100.433ZM65.3207 94.6418C65.3207 95.1199 65.2905 95.6009 65.3207 96.073C65.3388 96.2474 65.5501 96.545 65.6618 96.539C66.1749 96.521 66.7213 96.539 67.1137 96.094C67.6148 95.5377 67.7718 94.3141 67.4156 93.6646C67.2997 93.4266 67.1251 93.2216 66.9081 93.0691C66.6912 92.9166 66.4389 92.8215 66.1749 92.7925C65.6165 92.7294 65.3599 92.934 65.3146 93.4962C65.2935 93.8841 65.3207 94.2689 65.3207 94.6508V94.6418Z" fill="white"/>
<path d="M46.8645 115.858C46.1219 114.024 45.3853 112.211 44.6518 110.395C44.3228 109.577 44.0118 108.75 43.6737 107.939C43.3719 107.232 42.9704 106.634 42.1191 106.564C42.1191 106.183 42.3063 106.092 42.581 106.092H46.0555C46.3211 106.092 46.4781 106.179 46.4147 106.486L45.5091 107.034C45.6238 107.412 45.7143 107.803 45.8592 108.17C46.4449 109.634 47.0667 111.093 47.6372 112.56C47.7338 112.801 47.7912 113.017 48.1897 112.945C48.6002 111.868 49.0288 110.759 49.4484 109.637C49.6325 109.144 49.8016 108.645 49.9737 108.134C50.0264 108 50.0687 107.862 50.1004 107.722C50.2363 107 50.1005 106.802 49.385 106.583C49.3213 106.557 49.2606 106.525 49.2039 106.486C49.1556 106.186 49.2884 106.071 49.5601 106.071H52.1682C52.4188 106.071 52.5033 106.204 52.5033 106.483C52.184 106.567 51.8864 106.717 51.6303 106.925C51.3741 107.132 51.1655 107.392 51.0181 107.686C50.7163 108.36 50.3933 109.033 50.1125 109.716C49.5229 111.119 48.9423 112.53 48.3708 113.949C48.2017 114.367 48.0689 114.806 47.93 115.233C47.6825 115.892 47.5829 115.952 46.8645 115.858Z" fill="white"/>
<path d="M104.686 100.614C103.149 100.614 101.948 100.184 101.064 99.0831C100.44 98.2813 100.125 97.2838 100.175 96.2708C100.226 95.2578 100.638 94.2961 101.338 93.5597C101.865 93.0349 102.511 92.6436 103.221 92.4186C103.931 92.1936 104.685 92.1415 105.419 92.2667C106.116 92.3335 106.783 92.5806 107.355 92.9836C107.926 93.3865 108.382 93.9314 108.677 94.5639C109.655 96.6055 108.882 99.4048 106.509 100.277C105.929 100.504 105.31 100.618 104.686 100.614ZM107.197 96.7588C107.182 95.7245 107.11 94.6721 106.461 93.725C106.24 93.3965 105.937 93.1311 105.582 92.9549C105.226 92.7787 104.831 92.6979 104.435 92.7203C104.039 92.7428 103.655 92.8679 103.322 93.0831C102.989 93.2983 102.719 93.5962 102.537 93.9476C101.797 95.3968 101.836 96.8491 102.401 98.3104C102.582 98.7519 102.838 99.1588 103.158 99.5131C103.378 99.765 103.655 99.9618 103.965 100.088C104.276 100.214 104.611 100.265 104.946 100.238C105.815 100.169 106.4 99.6183 106.799 98.8486C107.149 98.1901 107.149 97.4985 107.197 96.7588Z" fill="white"/>
<path d="M72.7734 113.023C72.8282 112.997 72.8883 112.985 72.9488 112.987C73.0093 112.989 73.0684 113.005 73.1212 113.035C73.1741 113.064 73.2191 113.106 73.2526 113.156C73.2861 113.206 73.3071 113.264 73.3138 113.324C73.5237 113.854 73.8401 114.336 74.2435 114.74C74.4909 115.038 74.8187 115.259 75.1882 115.378C75.5578 115.497 75.9537 115.508 76.3294 115.41C76.5415 115.365 76.7375 115.264 76.8969 115.117C77.0563 114.971 77.1731 114.784 77.235 114.577C77.39 114.223 77.4194 113.826 77.3185 113.452C77.2176 113.078 76.9923 112.75 76.6796 112.521C76.2811 112.256 75.8826 111.982 75.4721 111.76C74.8293 111.441 74.2332 111.036 73.7001 110.557C73.2989 110.214 73.0469 109.729 72.9968 109.204C72.8549 107.367 73.9024 106.143 75.7558 106.017C76.4051 105.993 77.0552 106.007 77.7029 106.059C77.9109 106.05 78.1147 106.12 78.272 106.256C78.4293 106.392 78.5282 106.583 78.5481 106.79C78.6085 107.193 78.6749 107.596 78.699 107.992C78.699 108.101 78.5722 108.215 78.5028 108.326C78.3911 108.257 78.2372 108.212 78.1738 108.11C78.0228 107.869 77.9383 107.587 77.7844 107.346C77.5635 106.978 77.2211 106.698 76.8158 106.554C76.4106 106.41 75.9676 106.41 75.5626 106.555C74.4397 106.982 74.2103 108.164 75.0736 109.015C75.4545 109.381 75.8996 109.674 76.3867 109.881C77.0572 110.18 77.6863 110.564 78.2583 111.023C78.5261 111.244 78.7471 111.516 78.9085 111.823C79.07 112.13 79.1686 112.466 79.1986 112.811C79.2287 113.156 79.1896 113.504 79.0836 113.834C78.9776 114.164 78.8069 114.47 78.5813 114.734C78.0052 115.421 77.1793 115.854 76.2841 115.936C75.3151 116.048 74.3522 116.033 73.4496 115.591C73.3077 115.522 73.1025 115.416 73.0753 115.29C72.9123 114.565 72.5953 113.832 72.7734 113.023Z" fill="white"/>
<path d="M32.9127 94.6627C32.9127 96.0519 32.9127 97.441 32.9127 98.8301C32.9513 99.1155 33.0306 99.394 33.1482 99.657C33.284 100.057 33.6885 99.9938 33.9783 100.075C34.0628 100.355 33.9783 100.502 33.7338 100.508C33.0335 100.523 32.3332 100.532 31.6208 100.508C31.5031 100.508 31.3914 100.352 31.2072 100.207C31.3111 100.132 31.4223 100.068 31.5393 100.015C31.7436 99.9798 31.928 99.8715 32.0576 99.7103C32.1872 99.5491 32.253 99.3462 32.2426 99.1399C32.2698 97.3629 32.2819 95.5859 32.2879 93.8089C32.2879 93.3428 31.986 93.0751 31.6027 92.8676C31.4457 92.7804 31.2767 92.7233 30.9688 92.591C31.5242 92.3775 31.9619 92.5068 32.3694 92.4467C33.0878 92.3354 33.5769 92.6391 34.0417 93.1623C35.2281 94.5033 36.4416 95.8234 37.6641 97.1373C37.8422 97.3268 37.966 97.7116 38.3312 97.5643C38.6965 97.417 38.5305 97.0531 38.5184 96.7885C38.4731 95.7602 38.3946 94.7319 38.3282 93.7036C38.3363 93.5776 38.3178 93.4513 38.2738 93.3329C38.2298 93.2145 38.1614 93.1065 38.0729 93.0161C37.9844 92.9256 37.8778 92.8548 37.7601 92.808C37.6424 92.7612 37.5161 92.7396 37.3894 92.7444C37.3351 92.7444 37.2837 92.6692 37.2234 92.6211C37.7758 92.3926 39.4119 92.3806 40.0579 92.6211C39.9835 92.6795 39.9024 92.7289 39.8164 92.7684C39.6044 92.8254 39.4194 92.9549 39.2936 93.1341C39.1678 93.3133 39.1092 93.5308 39.1281 93.7487C39.0879 95.6189 39.0497 97.4912 39.0134 99.3654C39.0245 99.6282 39.0175 99.8913 38.9923 100.153C38.9289 100.577 38.6633 100.688 38.3403 100.403C38.0265 100.108 37.7321 99.7938 37.4588 99.4616C36.1518 97.9582 34.8537 96.4698 33.5346 94.9784C33.3769 94.8186 33.2074 94.6709 33.0274 94.5365L32.9127 94.6627Z" fill="white"/>
<path d="M84.749 115.506C84.1453 115.876 83.3031 115.936 80.9485 115.807C80.7302 115.773 80.5158 115.718 80.3086 115.641L80.2754 115.482C80.3356 115.448 80.3982 115.417 80.4625 115.392C81.4738 115.067 81.4859 115.067 81.4889 113.984C81.4889 111.942 81.4889 109.901 81.4889 107.863C81.4889 106.858 81.4678 106.849 80.4625 106.564C80.4203 106.564 80.3901 106.504 80.3599 106.477C80.2995 106.212 80.4475 106.101 80.6618 106.098C81.8904 106.098 83.1189 106.098 84.3475 106.113C84.4773 106.113 84.6011 106.263 84.8215 106.413C84.6699 106.495 84.5125 106.565 84.3506 106.624C83.6985 106.78 83.5537 106.925 83.5446 107.589C83.5265 108.765 83.5446 109.943 83.5446 111.119C83.5446 112.126 83.5446 113.137 83.5446 114.144C83.5446 115.088 83.5929 115.118 84.4985 115.386C84.5851 115.419 84.669 115.459 84.749 115.506Z" fill="white"/>
<path d="M40.939 106.519C40.8454 106.549 40.7579 106.582 40.6703 106.603C39.9368 106.763 39.8191 106.868 39.816 107.599C39.802 109.804 39.802 112.009 39.816 114.214C39.816 114.971 39.9338 115.085 40.6764 115.326C40.8277 115.392 40.9748 115.468 41.1171 115.552C40.9249 115.653 40.7226 115.735 40.5134 115.795C39.3059 115.951 37.0782 115.813 36.5137 115.516C36.731 115.428 36.885 115.356 37.045 115.305C37.2479 115.27 37.4313 115.163 37.5616 115.004C37.6919 114.845 37.7603 114.644 37.7543 114.439C37.7543 113.913 37.8117 113.387 37.8147 112.861C37.8147 111.396 37.8147 109.932 37.8147 108.471C37.8154 108.159 37.7962 107.848 37.7574 107.538C37.6668 106.823 37.6094 106.772 36.9121 106.588C36.8082 106.557 36.7072 106.517 36.6103 106.468C36.577 106.167 36.7491 106.08 36.9574 106.08C38.1649 106.08 39.3723 106.08 40.5798 106.08C40.8454 106.092 40.9783 106.219 40.939 106.519Z" fill="white"/>
<path d="M57.9668 96.0883C58.4396 96.1143 58.9136 96.1084 59.3855 96.0704C59.6256 95.994 59.8418 95.8572 60.0134 95.6734C60.1642 95.5178 60.3015 95.3498 60.4239 95.1712C60.6481 95.9079 60.6793 96.6893 60.5145 97.4413C60.2127 97.5105 60.1462 97.2579 60.0617 97.0835C59.9959 96.9412 59.8866 96.8233 59.7494 96.7466C59.6123 96.6699 59.4542 96.6384 59.298 96.6566C58.8693 96.6566 58.4407 96.6566 57.9608 96.6566C57.8508 97.5801 57.8447 98.513 57.9426 99.4379C57.9779 99.5572 58.0425 99.6658 58.1305 99.754C58.2185 99.8422 58.3272 99.9072 58.4468 99.9431C59.1501 100.024 59.8595 100.135 60.5598 99.7656C60.8979 99.5882 61.0066 99.2876 61.2269 99.0471C61.3742 98.8653 61.5083 98.6733 61.6284 98.4727C61.9484 98.7012 61.8397 98.9598 61.8125 99.1763C61.6526 100.412 61.5107 100.514 60.273 100.514C58.7637 100.514 57.2815 100.514 55.7873 100.514C55.5036 100.514 55.1836 100.578 55.084 100.199C55.1172 100.154 55.1413 100.093 55.1745 100.084C56.1284 99.8678 56.1586 99.8619 56.1737 98.8456C56.1979 97.2841 56.1979 95.7225 56.1737 94.161C56.1737 93.0996 56.1375 93.0996 55.2953 92.6155C55.7873 92.42 60.1643 92.3749 61.1122 92.5644C61.1937 93.0815 61.3356 93.6078 61.0881 94.2362C60.9402 94.0618 60.7862 93.9594 60.75 93.8271C60.4934 93.0514 59.8444 92.9252 59.1652 92.82C59.0206 92.8065 58.8751 92.8065 58.7305 92.82C58.0241 92.838 57.9034 92.9582 57.8913 93.6708C57.8913 94.224 57.8732 94.7774 57.8913 95.3276C57.9034 95.5823 57.9286 95.8361 57.9668 96.0883Z" fill="white"/>
<path d="M80.0509 100.163C79.7491 100.563 79.6796 100.575 78.1039 100.521C77.8021 100.521 77.802 100.521 77.5605 100.142C78.3544 99.9827 78.6261 99.3783 78.8918 98.7138C79.583 96.9909 80.3226 95.2861 81.0441 93.5752C81.1638 93.268 81.2988 92.967 81.4486 92.6732C81.5808 92.5 81.7328 92.3426 81.9014 92.2041C82.0647 92.4278 82.2081 92.6653 82.33 92.9138C82.8673 94.321 83.3775 95.7372 83.9148 97.1443C84.1593 97.7878 84.4672 98.4102 84.7117 99.0537C84.92 99.5979 85.2219 100.019 85.8226 100.124C85.8739 100.458 85.7018 100.539 85.4513 100.539C84.6544 100.539 83.8574 100.539 83.0635 100.521C82.8517 100.474 82.6482 100.396 82.4598 100.289C83.136 99.7843 83.1934 99.5708 82.9036 98.8612C82.4689 97.8058 82.4688 97.8027 81.2855 97.8057C79.7068 97.8057 79.9755 97.6945 79.5076 99.0085C79.251 99.697 79.2902 99.8324 80.0509 100.163ZM80.4041 97.2376C80.7935 97.2376 81.1769 97.2376 81.5572 97.2376C82.0432 97.2376 82.1851 97.0631 82.0432 96.609C81.841 95.9596 81.5844 95.3283 81.352 94.6938C80.6788 94.8261 80.8207 95.4365 80.6516 95.8033C80.4826 96.1701 80.066 96.6091 80.4041 97.2376Z" fill="white"/>
<path d="M26.4953 92.2612C26.6977 92.6172 26.881 92.9836 27.0447 93.3588C27.3858 94.2609 27.6846 95.1629 28.0197 96.0469C28.388 97.0361 28.7744 98.0164 29.1638 98.9966C29.4656 99.7453 29.6166 99.8805 30.338 100.139C30.3984 100.44 30.2112 100.521 29.9697 100.524C29.1004 100.524 28.231 100.524 27.3646 100.509C27.2228 100.509 27.087 100.38 26.8183 100.244C27.7541 99.9166 27.5156 99.3243 27.3526 98.759C27.2983 98.5756 27.1775 98.4102 27.1413 98.2268C27.124 98.1063 27.0606 97.9971 26.9644 97.922C26.8683 97.847 26.7467 97.8117 26.6251 97.8238C26.0214 97.8028 25.4176 97.8059 24.8139 97.7999H24.7415C24.2434 97.8901 23.5853 99.4085 23.9023 99.7994C24.0823 99.9503 24.2863 100.07 24.506 100.154C24.506 100.422 24.346 100.497 24.0925 100.512C22.7582 100.602 22.2813 100.53 22.0156 100.136C22.9574 100.013 23.1597 99.2191 23.4465 98.5395C24.2102 96.7114 24.9286 94.8621 25.6893 93.031C25.8442 92.7485 26.0305 92.4842 26.2447 92.2432L26.4953 92.2612ZM25.8221 94.6486C25.6591 94.7569 25.5203 94.799 25.481 94.8862C25.2244 95.5176 24.9679 96.1551 24.7566 96.8046C24.6811 97.0331 24.8381 97.2195 25.1097 97.2316C25.3814 97.2436 25.638 97.2316 25.9006 97.2316C26.5043 97.2105 26.6583 97.0601 26.5043 96.4888C26.3504 95.9175 26.0636 95.3041 25.8221 94.6486Z" fill="white"/>
<path d="M71.2801 98.2682C71.6242 98.175 71.6725 98.3975 71.7752 98.593C72.1404 99.2725 72.5721 99.889 73.3599 100.157C73.6187 100.25 73.8998 100.263 74.1661 100.194C74.4324 100.124 74.6713 99.9762 74.8511 99.7687C75.0453 99.5518 75.1564 99.2735 75.1646 98.9831C75.1729 98.6926 75.0779 98.4085 74.8964 98.181C74.6027 97.8354 74.2624 97.5318 73.8852 97.279C73.375 96.9302 72.7954 96.6777 72.2913 96.3229C71.5246 95.7817 71.3254 94.9878 71.4974 94.1008C71.6695 93.2138 72.2128 92.7659 73.0067 92.4502C74.018 92.0533 74.9749 92.1765 75.9982 92.5734C76.0616 93.0665 76.128 93.5987 76.2125 94.2452C76.0073 94.1369 75.8654 94.1068 75.802 94.0196C75.6481 93.8062 75.5485 93.5567 75.3915 93.3462C75.1665 93.0635 74.8586 92.8577 74.5107 92.7575C74.1628 92.6572 73.7922 92.6675 73.4505 92.7868C72.6596 93.0875 72.5057 94.2693 73.2331 94.8677C73.7126 95.2113 74.2171 95.5188 74.7425 95.7876C75.0443 95.959 75.313 96.1274 75.5907 96.3078C77.1 97.276 76.928 99.3508 75.3492 100.187C74.1901 100.803 72.9886 100.734 71.7963 100.265C71.7044 100.238 71.6259 100.178 71.5759 100.096C71.3706 99.5131 71.1231 98.9297 71.2801 98.2682Z" fill="white"/>
<path d="M54.324 92.6602C53.1165 93.006 52.9173 94.1095 52.5128 95.0146C52.0057 96.1151 51.5801 97.2486 51.1243 98.3731C50.8828 98.9745 50.6534 99.5759 50.4179 100.177C50.3364 100.382 50.2458 100.58 49.9772 100.589C49.7085 100.598 49.5757 100.379 49.4851 100.147C48.6882 98.1596 47.8973 96.1722 47.0914 94.1877C46.8167 93.5202 46.4876 92.8677 45.582 92.7294C46.1526 92.4287 48.6882 92.4016 49.3251 92.6723C49.1651 92.7444 49.0414 92.7926 48.9237 92.8587C48.8439 92.888 48.7716 92.9344 48.7118 92.9945C48.652 93.0546 48.6061 93.127 48.5773 93.2067C48.5485 93.2863 48.5376 93.3712 48.5453 93.4555C48.553 93.5398 48.5791 93.6214 48.6218 93.6945C49.1269 94.9855 49.63 96.2725 50.1311 97.5554C50.2345 97.7825 50.3494 98.0043 50.4752 98.2199C50.5965 98.163 50.703 98.0792 50.7867 97.975C50.8704 97.8707 50.9291 97.7488 50.9582 97.6185C51.405 96.3617 51.8366 95.1047 52.2804 93.8509C52.4887 93.2495 52.4736 93.1744 51.9785 92.8677C51.8668 92.7985 51.7491 92.7415 51.5982 92.6573C52.4915 92.4219 53.4312 92.4228 54.324 92.6602Z" fill="white"/>
<path d="M44.6273 100.103C44.5549 100.283 44.5247 100.436 44.4885 100.439C43.4833 100.472 42.4751 100.499 41.4699 100.502C41.334 100.502 41.1982 100.376 40.9688 100.262C41.1589 100.151 41.2525 100.049 41.3431 100.049C41.8049 100.049 41.971 99.7628 42.0404 99.3749C42.0743 99.2339 42.0935 99.0898 42.0977 98.9449C42.0977 97.2641 42.0977 95.5834 42.0283 93.9056C41.9951 93.0035 41.9257 92.9854 41.1227 92.6727C41.5212 92.4172 43.8153 92.3721 44.6485 92.6277C44.5488 92.6952 44.4426 92.7525 44.3315 92.799C44.1432 92.8458 43.9782 92.9591 43.8672 93.1177C43.7562 93.2764 43.7067 93.4698 43.7278 93.662C43.7278 95.5112 43.7429 97.3604 43.7278 99.2096C43.7067 99.811 44.0327 100.066 44.6273 100.103Z" fill="white"/>
<path d="M98.9599 100.274C98.8512 100.352 98.7456 100.499 98.6399 100.499C97.6076 100.499 96.5752 100.478 95.5428 100.448C95.5006 100.448 95.4643 100.304 95.4311 100.24C95.4885 100.171 95.5096 100.111 95.5488 100.102C96.3729 99.8616 96.4544 99.7714 96.4544 98.8995C96.4544 97.3961 96.4544 95.8716 96.4544 94.3592C96.4544 93.5744 96.4031 92.8558 95.416 92.6032C96.5873 92.413 97.7833 92.4323 98.9478 92.6603C98.8772 92.7073 98.8012 92.7456 98.7214 92.7746C98.2113 92.8888 98.0302 93.2316 98.0332 93.7187C98.0332 94.8974 98.0332 96.0731 98.0332 97.2488C98.0332 97.778 98.0543 98.3071 98.0332 98.8363C97.997 99.4978 98.1298 100.024 98.9659 100.111L98.9599 100.274Z" fill="white"/>
</g>
<defs>
<clipPath id="clip0_760_13637">
<rect width="131" height="133" fill="white"/>
</clipPath>
</defs>
</svg>
