<svg width="134" height="32" viewBox="0 0 134 32" fill="none" xmlns="http://www.w3.org/2000/svg">
<path d="M23.1447 3.16748V5.59038L20.9445 6.80135L13.5693 10.8629L12.6715 11.357V22.4928L11.5728 21.8868L10.4722 22.4928V11.357L9.57544 10.8629L2.19924 6.80135L0 5.59038V3.16748L2.19924 4.37845L10.4722 8.93407L11.5728 9.54003L12.6715 8.93407L20.9445 4.37845L23.1447 3.16748Z" fill="white"/>
<path d="M2.54297 0.937012V3.40353L9.92315 7.8188L10.5744 7.46034L2.54297 0.937012Z" fill="white"/>
<path d="M5.60547 0.034668V2.80843L10.9544 7.2512L11.3829 7.01508V7.01413L5.60547 0.034668Z" fill="white"/>
<path d="M20.6017 0.937012V3.40353L13.2215 7.8188L12.5703 7.46034L20.6017 0.937012Z" fill="white"/>
<path d="M17.5402 0.034668V2.80843L12.1902 7.2512L11.7617 7.01508V7.01413L17.5402 0.034668Z" fill="white"/>
<path d="M23.1447 6.90186V31.9653L20.9445 30.7544L12.6715 26.1987L11.5728 25.5928L10.4722 26.1987L2.19924 30.7544L0 31.9653V6.90186L2.19924 8.11283V28.3315L9.57544 24.2709V24.2699L10.4722 23.7758L11.5728 23.1708L12.6715 23.7758L13.5693 24.2699L20.9445 28.3315V8.11283L23.1447 6.90186Z" fill="white"/>
<path d="M35.5427 15.4989V18.707H33.4906V15.4989L30.2852 10.27H32.0917C32.2423 10.2622 32.3911 10.304 32.5132 10.3885C32.6199 10.4724 32.7078 10.5759 32.7717 10.6929L34.0225 13.1481C34.1272 13.3415 34.2223 13.522 34.3078 13.6895C34.3933 13.8571 34.4682 14.0221 34.5325 14.1845C34.5935 14.0189 34.6631 13.852 34.7413 13.6838C34.8208 13.516 34.9123 13.3377 35.0177 13.1481L36.2565 10.6929C36.2851 10.64 36.3184 10.5896 36.3559 10.5421C36.3966 10.491 36.4445 10.4453 36.4981 10.4065C36.5552 10.3658 36.6186 10.3338 36.686 10.3117C36.7612 10.2856 36.8407 10.2727 36.9207 10.2738H38.753L35.5427 15.4989Z" fill="white"/>
<path d="M47.5637 14.48C47.5696 15.064 47.4572 15.6436 47.2326 16.1869C47.0219 16.7029 46.7019 17.1718 46.2925 17.5644C45.8831 17.957 45.3932 18.2648 44.8534 18.4685C43.6421 18.9086 42.3035 18.9086 41.0922 18.4685C40.5512 18.2655 40.06 17.958 39.6493 17.5654C39.2387 17.1728 38.9176 16.7035 38.7061 16.1869C38.2646 15.0908 38.2646 13.8776 38.7061 12.7816C38.9173 12.2704 39.2353 11.8055 39.6407 11.4151C40.056 11.0214 40.5509 10.7124 41.0952 10.5066C41.694 10.2805 42.3333 10.1681 42.9773 10.1757C43.6206 10.1679 44.2592 10.2814 44.8564 10.5095C45.3984 10.717 45.8908 11.027 46.304 11.4208C46.7079 11.8121 47.0248 12.2772 47.2356 12.7882C47.4577 13.3269 47.569 13.9012 47.5637 14.48ZM45.4629 14.48C45.4684 14.0983 45.411 13.7181 45.2929 13.3534C45.1928 13.0402 45.0267 12.7497 44.8047 12.4999C44.5907 12.2679 44.3237 12.0858 44.0242 11.9679C43.6912 11.8378 43.3341 11.7733 42.9743 11.7783C42.6113 11.7733 42.2509 11.8378 41.9145 11.9679C41.6138 12.0853 41.3457 12.2674 41.131 12.4999C40.909 12.7497 40.7429 13.0402 40.6428 13.3534C40.4162 14.0908 40.4162 14.8748 40.6428 15.6123C40.7433 15.9236 40.9095 16.2121 41.131 16.46C41.3452 16.6926 41.6135 16.8741 41.9145 16.9901C42.2519 17.1163 42.6119 17.1782 42.9743 17.1722C43.3334 17.1781 43.6903 17.1162 44.0242 16.9901C44.3239 16.8735 44.5911 16.692 44.8047 16.46C45.0263 16.2121 45.1924 15.9236 45.2929 15.6123C45.4111 15.2456 45.4685 14.8635 45.4629 14.48Z" fill="white"/>
<path d="M54.1026 17.1461V18.7089H48.7715V10.269H50.8236V17.1432L54.1026 17.1461Z" fill="white"/>
<path d="M63.0819 18.7089H61.4911C61.3378 18.7161 61.1863 18.6744 61.0606 18.5903C60.9512 18.5116 60.8652 18.407 60.8111 18.2869L60.2891 16.8151H56.9256L56.4036 18.2869C56.3525 18.4029 56.2697 18.5037 56.164 18.579C56.0412 18.6682 55.8898 18.7141 55.7355 18.7089H54.1328L57.557 10.269H59.6578L63.0819 18.7089ZM59.8218 15.4847L59.0026 13.1746C58.9419 13.0276 58.8763 12.8551 58.8037 12.6559C58.7311 12.4568 58.6665 12.2415 58.5979 12.0101C58.5363 12.2466 58.47 12.4647 58.3991 12.6644C58.3281 12.8642 58.2619 13.0381 58.2002 13.186L57.3859 15.4847H59.8218Z" fill="white"/>
<path d="M71.5016 10.2709V18.7108H70.4328C70.2963 18.715 70.1605 18.6904 70.0351 18.6387C69.9109 18.5776 69.802 18.4916 69.7159 18.3865L65.5402 13.3548C65.5571 13.5056 65.568 13.6507 65.574 13.792C65.58 13.9333 65.5829 14.0651 65.5829 14.1884V18.7108H63.7734V10.2709H64.8542C64.9292 10.2702 65.0043 10.274 65.0789 10.2823C65.1354 10.2896 65.1906 10.3043 65.2429 10.326C65.2941 10.3491 65.3414 10.3794 65.3831 10.416C65.4369 10.4651 65.4874 10.5173 65.5342 10.5725L69.7418 15.6393C69.7219 15.4771 69.707 15.3197 69.6991 15.1651C69.6911 15.0105 69.6871 14.8692 69.6871 14.7336V10.269L71.5016 10.2709Z" fill="white"/>
<path d="M81.2403 14.4884C81.2464 15.0662 81.1343 15.6396 80.9102 16.1764C80.6985 16.6782 80.381 17.1333 79.9776 17.5135C79.5633 17.8985 79.0707 18.1984 78.53 18.3945C77.9297 18.6103 77.2924 18.717 76.6509 18.7093H73.2148V10.2695H76.6509C77.2927 10.2615 77.9304 10.3696 78.53 10.5881C79.0698 10.7853 79.5622 11.0846 79.9776 11.4681C80.3816 11.8471 80.6991 12.3017 80.9102 12.8033C81.1344 13.3391 81.2465 13.9116 81.2403 14.4884ZM79.1404 14.4884C79.1458 14.1058 79.0884 13.7247 78.9704 13.359C78.8697 13.0459 78.7033 12.7555 78.4813 12.5055C78.2676 12.2716 78.0006 12.0873 77.7008 11.9669C77.368 11.8364 77.0107 11.7718 76.6509 11.7773H75.2788V17.2034H76.6509C77.0107 17.2088 77.368 17.1443 77.7008 17.0137C78.001 16.894 78.2682 16.7096 78.4813 16.4751C78.7036 16.2254 78.87 15.9349 78.9704 15.6216C79.0883 15.2546 79.1457 14.8723 79.1404 14.4884Z" fill="white"/>
<path d="M90.0868 18.7089H88.496C88.3426 18.7161 88.1911 18.6744 88.0655 18.5903C87.9563 18.5115 87.8707 18.4069 87.8169 18.2869L87.2939 16.8151H83.9305L83.4085 18.2869C83.3573 18.4029 83.2746 18.5037 83.1689 18.579C83.0465 18.6682 82.8953 18.7141 82.7414 18.7089H81.1387L84.5628 10.269H86.6626L90.0868 18.7089ZM86.8267 15.4847L86.0074 13.1746C85.9464 13.0273 85.8802 12.8544 85.8086 12.6559C85.737 12.4574 85.6684 12.2421 85.6028 12.0101C85.5424 12.2466 85.4762 12.4647 85.4039 12.6644C85.3317 12.8642 85.267 13.0381 85.21 13.186L84.3968 15.4847H86.8267Z" fill="white"/>
<path d="M105.229 10.2698L102.497 18.7096H100.639L98.9753 13.4808C98.9435 13.4001 98.9126 13.31 98.8848 13.2114C98.857 13.1128 98.8281 13.0104 98.7993 12.9023C98.7714 13.0104 98.7426 13.1128 98.7148 13.2114C98.687 13.31 98.6561 13.4011 98.6233 13.4808L96.9331 18.7096H95.0759L92.3438 10.2698H94.0678C94.2254 10.2645 94.381 10.3048 94.5142 10.3855C94.6287 10.4573 94.7118 10.5666 94.7478 10.6927L95.9617 15.0938C95.9985 15.2323 96.0353 15.384 96.0711 15.548C96.1069 15.7121 96.1447 15.8828 96.1805 16.0611C96.2436 15.7326 96.333 15.4092 96.4479 15.0938L97.8806 10.6927C97.9249 10.5747 98.0066 10.4726 98.1143 10.4007C98.2396 10.3118 98.3926 10.2657 98.5487 10.2698H99.1552C99.3088 10.2628 99.4606 10.3044 99.5867 10.3883C99.6957 10.4677 99.7813 10.5725 99.8353 10.6927L101.256 15.0938C101.37 15.3936 101.46 15.7015 101.523 16.0146C101.555 15.8407 101.588 15.6776 101.623 15.5253C101.657 15.3726 101.692 15.2285 101.728 15.0938L102.943 10.6927C102.982 10.572 103.064 10.4677 103.174 10.3978C103.301 10.3107 103.454 10.2658 103.61 10.2698H105.229Z" fill="white"/>
<path d="M114.564 14.48C114.569 15.0639 114.457 15.6434 114.234 16.1869C114.023 16.7028 113.702 17.1717 113.293 17.5642C112.883 17.9568 112.393 18.2646 111.853 18.4685C110.642 18.9086 109.304 18.9086 108.092 18.4685C107.551 18.2655 107.06 17.958 106.649 17.5654C106.239 17.1728 105.918 16.7035 105.706 16.1869C105.265 15.0908 105.265 13.8776 105.706 12.7816C105.917 12.2704 106.235 11.8055 106.641 11.4151C107.056 11.0214 107.551 10.7124 108.095 10.5066C108.694 10.2805 109.333 10.1681 109.977 10.1757C110.621 10.1679 111.259 10.2814 111.856 10.5095C112.398 10.717 112.891 11.027 113.304 11.4208C113.708 11.8121 114.025 12.2772 114.237 12.7882C114.458 13.3271 114.569 13.9013 114.564 14.48ZM112.464 14.48C112.469 14.0983 112.412 13.7181 112.294 13.3534C112.194 13.04 112.027 12.7495 111.805 12.4999C111.591 12.2676 111.324 12.0856 111.024 11.9679C110.691 11.8378 110.334 11.7733 109.974 11.7783C109.611 11.7733 109.251 11.8378 108.914 11.9679C108.614 12.0851 108.346 12.2672 108.132 12.4999C107.909 12.7495 107.743 13.04 107.643 13.3534C107.416 14.0908 107.416 14.8748 107.643 15.6123C107.743 15.9238 107.91 16.2124 108.132 16.46C108.346 16.6928 108.614 16.8743 108.914 16.9901C109.252 17.1163 109.612 17.1782 109.974 17.1722C110.333 17.1781 110.69 17.1162 111.024 16.9901C111.324 16.8738 111.591 16.6923 111.805 16.46C112.027 16.2124 112.193 15.9238 112.294 15.6123C112.412 15.2456 112.469 14.8635 112.464 14.48Z" fill="white"/>
<path d="M124.456 14.48C124.462 15.064 124.35 15.6436 124.125 16.1869C123.915 16.703 123.594 17.1721 123.185 17.5647C122.775 17.9573 122.285 18.265 121.745 18.4685C120.534 18.9086 119.195 18.9086 117.984 18.4685C117.443 18.2651 116.952 17.9575 116.541 17.5649C116.131 17.1723 115.81 16.7032 115.598 16.1869C115.158 15.0906 115.158 13.8779 115.598 12.7816C115.809 12.2704 116.128 11.8055 116.533 11.4151C116.948 11.0215 117.443 10.7124 117.987 10.5066C118.586 10.2805 119.225 10.1681 119.869 10.1757C120.512 10.1679 121.151 10.2814 121.748 10.5095C122.29 10.717 122.783 11.027 123.197 11.4208C123.6 11.8121 123.917 12.2772 124.128 12.7882C124.35 13.3269 124.462 13.9012 124.456 14.48ZM122.355 14.48C122.361 14.0983 122.304 13.7181 122.185 13.3534C122.085 13.04 121.919 12.7495 121.696 12.4999C121.483 12.2677 121.216 12.0856 120.917 11.9679C120.583 11.8379 120.226 11.7734 119.866 11.7783C119.503 11.7732 119.143 11.8377 118.807 11.9679C118.506 12.085 118.238 12.2672 118.024 12.4999C117.801 12.7495 117.634 13.04 117.534 13.3534C117.308 14.0908 117.308 14.8748 117.534 15.6123C117.635 15.9238 117.801 16.2124 118.024 16.46C118.238 16.6928 118.506 16.8744 118.807 16.9901C119.144 17.1164 119.504 17.1783 119.866 17.1722C120.225 17.178 120.582 17.1162 120.917 16.9901C121.216 16.8738 121.483 16.6923 121.696 16.46C121.919 16.2124 122.085 15.9238 122.185 15.6123C122.304 15.2456 122.361 14.8635 122.355 14.48Z" fill="white"/>
<path d="M133.69 14.4884C133.697 15.0663 133.584 15.6398 133.359 16.1764C133.148 16.6782 132.831 17.1333 132.428 17.5135C132.013 17.8986 131.52 18.1984 130.979 18.3945C130.379 18.6103 129.742 18.717 129.1 18.7093H125.664V10.2695H129.1C129.742 10.2615 130.38 10.3696 130.979 10.5881C131.519 10.7853 132.012 11.0846 132.428 11.4681C132.832 11.8471 133.149 12.3017 133.359 12.8033C133.584 13.3389 133.697 13.9115 133.69 14.4884ZM131.59 14.4884C131.595 14.1058 131.538 13.7247 131.42 13.359C131.319 13.0459 131.153 12.7555 130.931 12.5055C130.717 12.2716 130.451 12.0873 130.151 11.9669C129.818 11.8364 129.46 11.7719 129.1 11.7773H127.728V17.2034H129.1C129.46 17.2087 129.818 17.1442 130.151 17.0137C130.451 16.894 130.718 16.7096 130.931 16.4751C131.153 16.2254 131.319 15.9349 131.42 15.6216C131.538 15.2546 131.595 14.8723 131.59 14.4884Z" fill="white"/>
<path d="M34.2663 27.8239H33.5703V22.8823H37.1565V23.4741H34.2732V24.9913H36.8135V25.5831H34.2732L34.2663 27.8239Z" fill="white"/>
<path d="M39.1444 24.1206C40.3495 24.1206 40.8973 25.0907 40.8973 26.0172C40.8973 26.9437 40.3495 27.9138 39.1444 27.9138C37.9394 27.9138 37.3906 26.9437 37.3906 26.0172C37.3906 25.0907 37.9394 24.1206 39.1444 24.1206ZM39.1444 27.397C40.0532 27.397 40.2381 26.5018 40.2381 26.02C40.2381 25.5383 40.0502 24.6441 39.1444 24.6441C38.2387 24.6441 38.0508 25.5383 38.0508 26.02C38.0508 26.5018 38.2347 27.397 39.1444 27.397Z" fill="white"/>
<path d="M44.6923 27.8256H44.057V25.6113C44.057 24.9845 43.8691 24.6678 43.2487 24.6678C42.8878 24.6678 42.2545 24.8887 42.2545 25.8655V27.8275H41.6191V24.224H42.2157V24.7332H42.2306C42.3519 24.5484 42.5199 24.3955 42.7191 24.2885C42.9183 24.1815 43.1424 24.1238 43.371 24.1206C43.9546 24.1206 44.6913 24.3482 44.6913 25.3733L44.6923 27.8256Z" fill="white"/>
<path d="M48.7636 27.8269H48.167V27.3309H48.1531C48.0545 27.5199 47.9001 27.6772 47.709 27.7837C47.5179 27.8902 47.2984 27.9411 47.0773 27.9302C45.7938 27.9302 45.418 26.7809 45.418 25.9198C45.418 24.9089 45.9877 24.1238 46.9908 24.1238C47.6769 24.1238 47.9652 24.5296 48.1173 24.7364L48.1312 24.688V22.8862H48.7665L48.7636 27.8269ZM47.0893 27.4068C47.4929 27.4068 48.1213 27.1517 48.1213 26.1958C48.1213 25.6107 48.0219 24.6671 47.1032 24.6671C46.1219 24.6671 46.0722 25.5557 46.0722 26.0166C46.0722 26.8084 46.3963 27.4068 47.0893 27.4068Z" fill="white"/>
<path d="M51.1796 24.1206C52.3846 24.1206 52.9324 25.0907 52.9324 26.0172C52.9324 26.9437 52.3846 27.9138 51.1796 27.9138C49.9746 27.9138 49.4258 26.9437 49.4258 26.0172C49.4258 25.0907 49.9726 24.1206 51.1796 24.1206ZM51.1796 27.397C52.0883 27.397 52.2733 26.5018 52.2733 26.02C52.2733 25.5383 52.0854 24.6441 51.1796 24.6441C50.2739 24.6441 50.086 25.5383 50.086 26.02C50.086 26.5018 50.2679 27.397 51.1796 27.397Z" fill="white"/>
<path d="M55.7246 22.8823H58.0044C58.9718 22.8823 59.4689 23.4513 59.4689 24.1274C59.4755 24.3464 59.4126 24.5622 59.2884 24.7465C59.1642 24.9308 58.9845 25.075 58.7729 25.1601C59.112 25.291 59.7105 25.5176 59.7105 26.3645C59.7105 27.1563 59.097 27.8239 57.9497 27.8239H55.7246V22.8823ZM56.4206 24.9743H57.6833C58.3544 24.9743 58.765 24.7846 58.765 24.1758C58.765 23.7149 58.4667 23.4532 57.6902 23.4532H56.4206V24.9743ZM56.4206 27.2502H57.9119C58.6407 27.2502 59.0056 26.8993 59.0056 26.3493C59.0056 25.6542 58.3633 25.5157 57.7936 25.5157H56.4156L56.4206 27.2502Z" fill="white"/>
<path d="M61.1216 22.8823H60.4863V23.5708H61.1216V22.8823Z" fill="white"/>
<path d="M61.1216 24.2222H60.4863V27.8219H61.1216V24.2222Z" fill="white"/>
<path d="M62.0234 27.8239V22.8823H62.6587V24.6784H62.6727C62.7909 24.5051 62.9532 24.3631 63.1444 24.2656C63.3356 24.1681 63.5495 24.1183 63.7663 24.1208C64.7695 24.1208 65.3392 24.906 65.3392 25.9169C65.3392 26.7779 64.9644 27.9273 63.6798 27.9273C63.47 27.9371 63.2615 27.8907 63.0779 27.7933C62.8942 27.6959 62.7429 27.5515 62.6409 27.3763H62.6259V27.8239H62.0234ZM63.647 24.6642C62.7303 24.6642 62.6299 25.6077 62.6299 26.1928C62.6299 27.1487 63.2573 27.4038 63.6609 27.4038C64.3569 27.4038 64.679 26.8054 64.679 26.0136C64.679 25.5527 64.6283 24.6613 63.647 24.6613V24.6642Z" fill="white"/>
<path d="M66.5923 27.8239H65.957V22.8823H66.5923V27.8239Z" fill="white"/>
<path d="M68.192 22.8823H67.5566V23.5708H68.192V22.8823Z" fill="white"/>
<path d="M68.192 24.2222H67.5566V27.8219H68.192V24.2222Z" fill="white"/>
<path d="M70.6806 24.1206C71.8856 24.1206 72.4344 25.0907 72.4344 26.0172C72.4344 26.9437 71.8856 27.9138 70.6806 27.9138C69.4756 27.9138 68.9277 26.9437 68.9277 26.0172C68.9277 25.0907 69.4746 24.1206 70.6806 24.1206ZM70.6806 27.397C71.5903 27.397 71.7742 26.5018 71.7742 26.02C71.7742 25.5383 71.5863 24.6441 70.6806 24.6441C69.7748 24.6441 69.5869 25.5383 69.5869 26.02C69.5869 26.5018 69.7728 27.397 70.6806 27.397Z" fill="white"/>
<path d="M76.2874 27.5229C76.2874 28.0387 76.2804 29.3322 74.5345 29.3322C74.0871 29.3322 73.2142 29.2156 73.0909 28.2587H73.7262C73.8415 28.8277 74.4222 28.8277 74.5773 28.8277C75.6709 28.8277 75.653 27.9875 75.653 27.5608V27.41H75.6391V27.4375C75.4731 27.6917 75.142 27.9192 74.6359 27.9192C73.3514 27.9192 72.9766 26.7699 72.9766 25.9089C72.9766 24.898 73.5463 24.1128 74.5494 24.1128C75.2355 24.1128 75.5238 24.5187 75.6749 24.7254H75.6898V24.2162H76.2864L76.2874 27.5229ZM74.6499 27.3986C75.0535 27.3986 75.6819 27.1435 75.6819 26.1877C75.6819 25.6026 75.5824 24.659 74.6638 24.659C73.6825 24.659 73.6318 25.5476 73.6318 26.0084C73.6318 26.8003 73.9569 27.3986 74.6499 27.3986Z" fill="white"/>
<path d="M77.8169 27.82H77.1816V24.2165H77.7782V24.8149H77.7931C78.0456 24.3957 78.3777 24.1131 78.8539 24.1131C78.9101 24.1111 78.9663 24.1181 79.02 24.134V24.7599H78.7814C78.1848 24.7599 77.815 25.2008 77.815 25.7233L77.8169 27.82Z" fill="white"/>
<path d="M79.4028 25.319C79.4316 24.4589 80.0311 24.1213 80.9617 24.1213C81.26 24.1213 82.3616 24.2038 82.3616 25.1265V27.1976C82.3616 27.3493 82.4411 27.4109 82.5704 27.4109C82.641 27.4078 82.7113 27.3986 82.7802 27.3834V27.8244C82.6688 27.8637 82.5518 27.8867 82.4332 27.8927C81.8704 27.8927 81.7839 27.6177 81.7621 27.3427C81.5959 27.532 81.3869 27.683 81.1509 27.7843C80.9148 27.8856 80.6577 27.9347 80.399 27.9278C79.703 27.9278 79.2148 27.5077 79.2148 26.8846C79.2148 26.5812 79.3093 25.8795 80.3622 25.7552L81.4091 25.6319C81.5602 25.6177 81.7412 25.5627 81.7412 25.2052C81.7412 24.8259 81.4519 24.6201 80.8533 24.6201C80.1315 24.6201 80.0311 25.0402 79.9874 25.3152L79.4028 25.319ZM81.7263 25.9828C81.6268 26.0587 81.4668 26.1137 80.6803 26.2095C80.3701 26.2512 79.872 26.3403 79.872 26.7946C79.872 27.1872 80.0808 27.4214 80.5571 27.4214C81.1486 27.4214 81.7263 27.0563 81.7263 26.5745V25.9828ZM81.1297 23.7391H80.6456L81.2878 22.769H82.0673L81.1297 23.7391Z" fill="white"/>
<path d="M84.2246 24.7257V27.8228H83.5932V24.7257H83.0742V24.2231H83.5932V23.6038C83.5932 23.0595 83.9541 22.812 84.5745 22.812C84.6739 22.812 84.7624 22.8186 84.8638 22.8262V23.3696C84.7843 23.363 84.6829 23.3554 84.6033 23.3554C84.3299 23.3554 84.2285 23.4862 84.2285 23.7755V24.2231H84.8638V24.7257H84.2246Z" fill="white"/>
<path d="M85.9849 22.8823H85.3496V23.5708H85.9849V22.8823Z" fill="white"/>
<path d="M85.9849 24.2222H85.3496V27.8219H85.9849V24.2222Z" fill="white"/>
<path d="M89.2974 25.433C89.2179 24.9513 88.9365 24.6621 88.4026 24.6621C87.6162 24.6621 87.3636 25.378 87.3636 26.0181C87.3636 26.6374 87.5217 27.4017 88.3957 27.4017C88.8212 27.4017 89.191 27.0992 89.2974 26.5482H89.9109C89.8452 27.1172 89.4774 27.9252 88.3738 27.9252C87.3129 27.9252 86.6836 27.1608 86.6836 26.1234C86.6836 25.0082 87.2463 24.1206 88.4951 24.1206C89.4833 24.1206 89.8592 24.8091 89.9099 25.4349L89.2974 25.433Z" fill="white"/>
<path d="M92.0819 24.1206C93.2869 24.1206 93.8358 25.0907 93.8358 26.0172C93.8358 26.9437 93.2869 27.9138 92.0819 27.9138C90.8769 27.9138 90.3281 26.9437 90.3281 26.0172C90.3281 25.0907 90.8769 24.1206 92.0819 24.1206ZM92.0819 27.397C92.9907 27.397 93.1756 26.5018 93.1756 26.02C93.1756 25.5383 92.9877 24.6441 92.0819 24.6441C91.1762 24.6441 90.9883 25.5383 90.9883 26.02C90.9883 26.5018 91.1722 27.397 92.0819 27.397Z" fill="white"/>
</svg>
