<svg width="13" height="13" viewBox="0 0 13 13" fill="none" xmlns="http://www.w3.org/2000/svg">
<path d="M5.24997 0C2.35049 0 0 2.35051 0 5.25C0 8.1495 2.35049 10.5 5.24997 10.5C6.51968 10.5 7.68411 10.0493 8.59198 9.29906L12.1465 12.8536C12.3417 13.0488 12.6583 13.0488 12.8536 12.8536C13.0488 12.6583 13.0488 12.3417 12.8536 12.1464L9.29907 8.59194C10.0492 7.68408 10.4999 6.51967 10.4999 5.25C10.4999 2.35051 8.14945 0 5.24997 0ZM0.999994 5.25C0.999994 2.90279 2.90277 1 5.24997 1C7.59717 1 9.49994 2.90279 9.49994 5.25C9.49994 7.59721 7.59717 9.5 5.24997 9.5C2.90277 9.5 0.999994 7.59721 0.999994 5.25Z" fill="#C98000"/>
</svg>
