<svg width="12" height="10" viewBox="0 0 12 10" fill="none" xmlns="http://www.w3.org/2000/svg">
<path d="M0 0.75C0 0.335786 0.335786 0 0.75 0H11.25C11.6642 0 12 0.335786 12 0.75C12 1.16421 11.6642 1.5 11.25 1.5H0.75C0.335786 1.5 0 1.16421 0 0.75ZM0 4.75C0 4.33579 0.335786 4 0.75 4H11.25C11.6642 4 12 4.33579 12 4.75C12 5.16421 11.6642 5.5 11.25 5.5H0.75C0.335786 5.5 0 5.16421 0 4.75ZM0 8.75C0 8.33579 0.335786 8 0.75 8H11.25C11.6642 8 12 8.33579 12 8.75C12 9.16421 11.6642 9.5 11.25 9.5H0.75C0.335786 9.5 0 9.16421 0 8.75Z" fill="#C98000"/>
</svg>
